<?xml version="1.0" encoding="UTF-8" standalone="no"?>
<svg
   xmlns:dc="http://purl.org/dc/elements/1.1/"
   xmlns:cc="http://creativecommons.org/ns#"
   xmlns:rdf="http://www.w3.org/1999/02/22-rdf-syntax-ns#"
   xmlns:svg="http://www.w3.org/2000/svg"
   xmlns="http://www.w3.org/2000/svg"
   xmlns:sodipodi="http://sodipodi.sourceforge.net/DTD/sodipodi-0.dtd"
   xmlns:inkscape="http://www.inkscape.org/namespaces/inkscape"
   version="1.1"
   x="0"
   y="0"
   width="256"
   height="256"
   viewBox="0 0 303.278 480.459"
   id="svg3745"
   sodipodi:docname="logo.svg"
   inkscape:version="0.92.4 (5da689c313, 2019-01-14)"
   inkscape:export-filename="C:\Users\pablo\source\repos\F#\fsharp-notebook\media\img\logo.png"
   inkscape:export-xdpi="96"
   inkscape:export-ydpi="96">
  <metadata
     id="metadata3751">
    <rdf:RDF>
      <cc:Work
         rdf:about="">
        <dc:format>image/svg+xml</dc:format>
        <dc:type
           rdf:resource="http://purl.org/dc/dcmitype/StillImage" />
        <dc:title></dc:title>
      </cc:Work>
    </rdf:RDF>
  </metadata>
  <defs
     id="defs3749" />
  <sodipodi:namedview
     pagecolor="transparent"
     bordercolor="#666666"
     borderopacity="1"
     objecttolerance="10"
     gridtolerance="10"
     guidetolerance="10"
     inkscape:pageopacity="0"
     inkscape:pageshadow="2"
     inkscape:window-width="1920"
     inkscape:window-height="1001"
     id="namedview3747"
     showgrid="false"
     inkscape:zoom="3.87"
     inkscape:cx="114.73616"
     inkscape:cy="122.048"
     inkscape:window-x="-9"
     inkscape:window-y="-9"
     inkscape:window-maximized="1"
     inkscape:current-layer="Layer_2"
     inkscape:pagecheckerboard="true">
    <inkscape:grid
       type="xygrid"
       id="grid3955" />
  </sodipodi:namedview>
  <g
     id="Layer_2">
    <path
       id="path62022"
       d="m 110.62305,62.597656 c -2.202,0 -4.57043,0.244985 -6.60743,0.708985 -12.469935,2.73 -21.523437,13.412015 -21.523432,26.541015 0,10.846004 6.191671,20.032114 15.388671,24.412114 1.103,0.543 2.397891,1.03373 3.587891,1.42773 1.153,0.383 2.3864,0.83345 3.60937,1.06445 0.36401,0.082 0.73157,0.15852 1.10157,0.22852 1.002,3.525 2.60472,12.16733 3.13672,32.23633 0.405,15.27 -0.0389,29.34383 -0.0469,29.54882 l -0.006,0.22071 0.002,0.21875 c 0.006,0.414 0.4243,41.77906 -15.595698,69.66406 -49.65,86.427 -73.127047,132.04216 -84.123047,156.66016 -9.411,21.085 -9.50320314,26.43059 -9.53320312,29.43359 l -0.00585938,0.66797 c -0.01,1.113 -0.009,2.21345 0,3.31445 0.002,0.225 0.00285938,0.47808 0.00585938,0.70508 0.12499999,9.874 1.18457812,20.38167 10.26757812,28.38867 9.384,8.27 25.893141,12.13235 53.244141,12.40235 1.037,0.011 2.215156,0.0176 3.285156,0.0176 H 236.58984 c 29.25,0 46.6633,-3.83392 56.4043,-12.41992 9.09,-8.012 10.14553,-18.53211 10.26953,-28.41211 0.003,-0.222 0.006,-0.47136 0.008,-0.69336 0.009,-1.096 0.009,-2.19373 -0.002,-3.30273 l -0.006,-0.67188 c -0.03,-3 -0.12586,-8.33728 -9.50586,-29.36328 -10.983,-24.603 -34.45734,-70.22156 -84.15234,-156.72656 -15.939,-27.747 -15.59975,-69.1403 -15.59375,-69.6543 l 0.002,-0.22265 -0.008,-0.21875 c -0.005,-0.158 -0.45264,-14.25864 -0.0469,-29.55664 0.531,-20.044 2.13086,-28.68385 3.13086,-32.21485 0.555,-0.106 1.10149,-0.22642 1.64454,-0.35742 1.193,-0.25 2.39548,-0.71437 3.52148,-1.10937 1.153,-0.404 2.41337,-0.90422 3.48437,-1.44922 9.005,-4.44 15.04297,-13.52928 15.04297,-24.238284 0,-15.281 -12.25348,-27.25 -27.89648,-27.25 z m 6.77343,18.292969 h 75.49219 c 5.469,0 9.60352,3.856031 9.60352,8.957031 0,4.98 -3.97558,8.756422 -9.26758,8.857422 -3.075,0.063 -6.0403,1.293704 -8.4043,3.472652 -0.097,0.089 -0.19311,0.18044 -0.28711,0.27344 -0.912,0.893 -1.81878,2.01027 -2.67578,3.57227 -2.877,5.283 -5.35586,15.69945 -6.13086,40.81445 -0.18152,5.87632 -0.21919,11.35333 -0.21484,16.31055 0.14054,0.77727 0.21461,1.63319 0.19922,2.57422 -0.042,2.56607 -0.073,5.13701 -0.11914,7.70898 0.0469,2.63227 0.0955,4.73879 0.11914,5.5293 0.003,0.076 0.005,0.15103 0.006,0.20703 -0.033,3.719 -0.003,43.41911 15.59375,74.28711 0.8,1.585 1.64515,3.15508 2.53515,4.70508 8.278,14.409 29.39344,51.17465 49.39844,88.22265 1.034,1.915 2.0658,3.8301 3.0918,5.7461 26.426,49.27 35.19572,70.21111 37.63672,78.41211 0.075,0.239 0.14398,0.49784 0.20898,0.71484 0.637,2.218 0.79174,3.40711 0.80274,4.03711 v 0.67773 c -0.002,9.654 -0.20494,14.92671 -4.08594,18.34571 -5.907,5.207 -20.74813,7.84061 -44.20313,7.84961 H 66.578125 c -23.454,-0.009 -38.292219,-2.64261 -44.199219,-7.84961 -3.882,-3.421 -4.083937,-8.69457 -4.085937,-18.35157 v -0.67187 c 0.009,-0.613 0.155953,-1.75533 0.751953,-3.86133 0.067,-0.231 0.14075,-0.50472 0.21875,-0.76172 2.395,-8.124 11.119547,-29.02959 37.685547,-78.55859 0.94,-1.755 1.884031,-3.51063 2.832031,-5.26563 20.095,-37.236 41.36397,-74.2647 49.66797,-88.7207 0.72,-1.255 1.41322,-2.52373 2.07422,-3.80273 15.804,-30.537 16.06511,-70.2269 16.03711,-74.96289 -0.001,-0.072 0,-0.14518 0,-0.20118 0.06,-1.981 0.47504,-16.56331 -0.0117,-32.32031 -0.762,-24.71 -3.17428,-35.18587 -5.98828,-40.54687 -0.904,-1.708 -1.86603,-2.8998 -2.83203,-3.8418 -2.407,-2.345 -5.47783,-3.680189 -8.67383,-3.742189 -5.294,-0.1 -9.26953,-3.877375 -9.26953,-8.859375 0,-4.998 3.99354,-8.788765 9.31054,-8.884765 0.086,-0.047 7.19278,-0.07227 7.30078,-0.07227 z"
       inkscape:connector-curvature="0" />
    <path
       id="path63310"
       d="m 170.49609,92.308594 c -0.005,-0.03731 -0.32577,0.23152 -0.63086,0.517578 0.036,0.0159 0.0745,0.02552 0.10938,0.04492 0.19286,-0.196715 0.42121,-0.42669 0.46875,-0.482422 0.0384,-0.04503 0.0539,-0.07135 0.0527,-0.08008 z"
       inkscape:connector-curvature="0" />
    <path
       d="m 85.245,318.126 c 0.914,-0.871 5.692,-3.962 10.189,-5.043 1.054,-0.253 2.113,-0.386 3.123,-0.362 2.093,0.049 4.32,0.867 6.768,2.043 4.482,2.149 9.751,5.484 16.453,7.398 1.903,0.545 4.201,0.697 6.786,0.558 8.994,-0.478 21.365,-4.485 31.834,-7.568 3.158,-0.93 6.142,-1.775 8.807,-2.413 1.317,-0.316 2.756,-0.522 4.285,-0.63 1.695,-0.12 3.534,-0.117 5.476,-0.011 13.868,0.773 32.369,6.71 39.533,8.843 0.491,0.146 0.927,0.274 1.306,0.381 42.786,77.339 54.35,105.563 56.259,112.692 0.534,1.994 0.418,5.568 0.326,7.951 -0.009,0.19 -0.014,0.375 -0.02,0.555 -0.089,2.214 -1.05,4.355 -2.561,5.8 -0.096,0.086 -0.195,0.196 -0.296,0.277 -0.738,0.662 -1.633,1.187 -2.634,1.507 -9.465,3.032 -23.802,3.557 -34.291,3.557 h -169.9 c -10.466,0 -24.822,-0.523 -34.29,-3.556 -0.993,-0.318 -1.879,-0.84 -2.615,-1.493 -1.695,-1.506 -2.789,-3.823 -2.871,-6.151 -0.158,-4.565 -0.122,-6.896 0.298,-8.486 2.133,-7.947 9.212,-28.539 58.035,-115.85"
       id="path62240"
       inkscape:connector-curvature="0"
       style="fill:#000000" />
    <text
       xml:space="preserve"
       style="font-style:normal;font-weight:normal;font-size:57.69651031px;line-height:1.25;font-family:sans-serif;letter-spacing:0px;word-spacing:0px;fill:#000000;fill-opacity:1;stroke:none;stroke-width:1.44241273"
       x="100.76064"
       y="314.73141"
       id="text3959"
       transform="scale(1.0543659,0.94843734)"><tspan
         sodipodi:role="line"
         id="tspan3957"
         x="100.76064"
         y="314.73141"
         style="stroke-width:1.44241273">#</tspan></text>
    <text
       xml:space="preserve"
       style="font-style:normal;font-weight:normal;font-size:28.41195869px;line-height:1.25;font-family:sans-serif;letter-spacing:0px;word-spacing:0px;fill:#000000;fill-opacity:1;stroke:none;stroke-width:0.71029902"
       x="169.05452"
       y="243.71819"
       id="text3959-2"
       transform="scale(0.9412406,1.0624276)"><tspan
         sodipodi:role="line"
         id="tspan3957-9"
         x="169.05452"
         y="243.71819"
         style="stroke-width:0.71029902">#</tspan></text>
    <text
       xml:space="preserve"
       style="font-style:normal;font-weight:normal;font-size:34.80737305px;line-height:1.25;font-family:sans-serif;letter-spacing:0px;word-spacing:0px;fill:#000000;fill-opacity:1;stroke:none;stroke-width:0.8701843"
       x="121.78887"
       y="239.68898"
       id="text3959-8"
       transform="scale(1.0403583,0.9612073)"><tspan
         sodipodi:role="line"
         id="tspan3957-57"
         x="121.78887"
         y="239.68898"
         style="stroke-width:0.8701843">#</tspan></text>
    <text
       xml:space="preserve"
       style="font-style:normal;font-weight:normal;font-size:40px;line-height:1.25;font-family:sans-serif;letter-spacing:0px;word-spacing:0px;fill:#000000;fill-opacity:1;stroke:none"
       x="113.2616"
       y="61.51659"
       id="text3959-5"><tspan
         sodipodi:role="line"
         id="tspan3957-51"
         x="113.2616"
         y="61.51659">#</tspan></text>
    <text
       xml:space="preserve"
       style="font-style:normal;font-weight:normal;font-size:52.74089432px;line-height:1.25;font-family:sans-serif;letter-spacing:0px;word-spacing:0px;fill:#000000;fill-opacity:1;stroke:none;stroke-width:1.31852233"
       x="140.29504"
       y="58.609875"
       id="text3959-68"
       transform="scale(1.1534358,0.86697502)"><tspan
         sodipodi:role="line"
         id="tspan3957-1"
         x="140.29504"
         y="58.609875"
         style="stroke-width:1.31852233">#</tspan></text>
    <text
       xml:space="preserve"
       style="font-style:normal;font-weight:normal;font-size:27.75594711px;line-height:1.25;font-family:sans-serif;letter-spacing:0px;word-spacing:0px;fill:#000000;fill-opacity:1;stroke:none;stroke-width:0.69389868"
       x="158.02425"
       y="24.799101"
       id="text3959-7"
       transform="scale(0.89525169,1.1170043)"><tspan
         sodipodi:role="line"
         id="tspan3957-4"
         x="158.02425"
         y="24.799101"
         style="stroke-width:0.69389868">#</tspan></text>
    <text
       xml:space="preserve"
       style="font-style:normal;font-weight:normal;font-size:23.80443382px;line-height:1.25;font-family:sans-serif;letter-spacing:0px;word-spacing:0px;fill:#000000;fill-opacity:1;stroke:none;stroke-width:0.59511083"
       x="132.11182"
       y="216.74152"
       id="text3959-54"
       transform="scale(1.1234248,0.89013525)"><tspan
         sodipodi:role="line"
         id="tspan3957-0"
         x="132.11182"
         y="216.74152"
         style="stroke-width:0.59511083">#</tspan></text>
    <text
       xml:space="preserve"
       style="font-style:normal;font-weight:normal;font-size:33.46819687px;line-height:1.25;font-family:sans-serif;letter-spacing:0px;word-spacing:0px;fill:#000000;fill-opacity:1;stroke:none;stroke-width:0.83670497"
       x="127.80095"
       y="159.7211"
       id="text3959-54-0"
       transform="scale(1.0253976,0.97523144)"><tspan
         sodipodi:role="line"
         id="tspan3957-0-4"
         x="127.80095"
         y="159.7211"
         style="stroke-width:0.83670497">#</tspan></text>
    <text
       xml:space="preserve"
       style="font-style:normal;font-weight:normal;font-size:18.97721863px;line-height:1.25;font-family:sans-serif;letter-spacing:0px;word-spacing:0px;fill:#000000;fill-opacity:1;stroke:none;stroke-width:0.47443047"
       x="134.75839"
       y="125.68264"
       id="text3959-8-5"
       transform="scale(1.1097884,0.90107266)"><tspan
         sodipodi:role="line"
         id="tspan3957-57-4"
         x="134.75839"
         y="125.68264"
         style="stroke-width:0.47443047">#</tspan></text>
    <path
       style="fill:#00aad4;stroke-width:0.5946275"
       d="m 51.863594,452.92898 c -12.713097,-0.87948 -19.762233,-2.56043 -22.437055,-5.3504 -1.674532,-1.74661 -1.777476,-2.14598 -1.959878,-7.60329 -0.174772,-5.22904 -0.018,-6.25308 1.701071,-11.11152 5.512769,-15.58017 22.156577,-48.72567 48.025409,-95.64072 8.660437,-15.70635 9.059194,-16.20388 14.919171,-18.61445 5.65197,-2.32501 8.105398,-1.97955 17.037408,2.39894 10.33814,5.0678 12.72985,5.83373 18.19316,5.82627 5.98286,-0.008 11.73277,-1.2178 27.82934,-5.85457 15.27022,-4.39873 18.88647,-4.97606 26.68083,-4.25956 8.68189,0.79808 17.01445,2.74186 36.97886,8.62623 0.49057,0.14459 3.30019,4.70722 6.24359,10.13918 26.63199,49.14848 41.00801,77.66675 48.1369,95.49107 2.79255,6.98221 2.81096,7.07376 2.60942,12.97983 l -0.20298,5.94802 -2.15987,1.97839 c -2.24385,2.05531 -5.58204,3.06479 -15.08433,4.56155 -4.93967,0.77808 -195.795258,1.22634 -206.511046,0.48503 z"
       id="path4063"
       inkscape:connector-curvature="0" />
    <path
       style="fill:#216778;stroke-width:0.5946275"
       d="M 50.178435,479.67871 C 25.123369,477.99219 10.247079,471.52922 4.3050019,459.74909 1.8050727,454.793 1.2695321,452.51834 0.5573414,443.83124 -0.15462875,435.14684 0.292826,430.91091 2.7074653,423.47664 9.735978,401.83703 40.770857,342.00565 85.806222,263.2726 c 4.579256,-8.00567 9.495279,-16.95836 10.924502,-19.89486 4.978416,-10.2287 9.103886,-25.37908 11.182626,-41.06704 2.91592,-22.00607 1.90434,-78.14846 -1.52819,-84.81388 -0.27513,-0.53427 -1.42529,-1.14494 -2.5559,-1.35704 -6.75939,-1.26807 -15.238974,-8.09554 -18.428764,-14.8382 -7.427201,-15.699814 1.941833,-34.186721 19.143554,-37.773917 4.37476,-0.9123 89.80266,-0.914119 94.18992,-0.002 14.06519,2.924157 23.74108,16.672428 21.38866,30.390694 -0.95444,5.5659 -3.11916,9.916193 -7.04356,14.155023 -3.3891,3.66062 -9.5386,7.30079 -13.63032,8.0684 -1.1306,0.21211 -2.28076,0.82278 -2.5559,1.35704 -2.38056,4.62268 -3.9367,36.29307 -3.0425,61.92072 0.79676,22.83497 3.24726,38.4004 8.39642,53.33352 3.00604,8.71786 4.83082,12.30707 17.88578,35.18018 26.39628,46.24791 45.76578,81.91779 60.75091,111.87576 15.11831,30.22424 20.52755,43.2706 21.8334,52.65932 0.64947,4.66952 -0.10563,17.15021 -1.29302,21.37181 -4.51936,16.06785 -19.29761,23.80657 -49.38528,25.8609 -9.94476,0.67901 -191.742678,0.66071 -201.860125,-0.0203 z M 253.023,461.83504 c 14.61696,-1.08923 24.24175,-3.69654 28.17868,-7.63348 2.69443,-2.69443 3.50411,-5.3124 4.0045,-12.94799 0.34033,-5.1932 0.21776,-6.55152 -0.93595,-10.37205 -6.20792,-20.55765 -34.33726,-74.9445 -82.38962,-159.29672 -11.51416,-20.21221 -11.94762,-21.05927 -15.06198,-29.43406 -3.22846,-8.68161 -5.08308,-15.29405 -6.8929,-24.57596 -3.36344,-17.24979 -3.59062,-20.61407 -3.60051,-53.32024 -0.01,-31.4615 0.32632,-37.53986 2.68385,-48.57568 2.44645,-11.45203 6.16032,-15.62824 14.95358,-16.815109 9.17072,-1.237818 11.79974,-11.123477 4.42293,-16.631066 -1.62473,-1.213036 -2.1189,-1.225996 -46.74657,-1.225996 -44.83388,0 -45.11456,0.0075 -46.78331,1.24393 -7.382595,5.470132 -4.7241,15.373553 4.45966,16.613132 4.70761,0.63541 6.734,1.524879 9.27693,4.072039 6.77193,6.7832 9.0071,24.5895 8.49284,67.65754 -0.31786,26.61878 -0.69985,31.42639 -3.7331,46.98276 -1.80992,9.2824 -3.66483,15.89527 -6.89319,24.57465 -3.14504,8.45536 -4.17911,10.4747 -15.47172,30.2133 -45.774851,80.01087 -75.809601,138.08618 -81.977906,158.51278 -1.156747,3.83062 -1.275761,5.17078 -0.931743,10.49189 0.497444,7.69422 1.608644,11.04524 4.435929,13.3773 4.197824,3.46255 14.059885,6.09704 26.318949,7.03069 10.032169,0.76405 194.014951,0.81662 204.190651,0.0583 z"
       id="path4065"
       inkscape:connector-curvature="0" />
    <path
       style="fill:#164450;stroke-width:0.5946275"
       d="m 49.957706,452.57865 c -13.930713,-1.60852 -17.237336,-2.47981 -20.037368,-5.27985 -1.9636,-1.9636 -1.963849,-1.96461 -1.963849,-7.98834 0,-6.70496 0.510453,-8.65865 5.084178,-19.45894 8.819593,-20.82639 47.490477,-94.22489 53.090354,-100.76708 2.68753,-3.13978 7.614751,-5.4222 11.74112,-5.43882 2.207119,-0.009 4.327949,0.57092 7.878819,2.15398 2.67231,1.19138 6.96163,3.10479 9.53183,4.25201 10.20718,4.55606 14.60897,4.23571 40.51861,-2.94889 5.0692,-1.40566 10.42085,-2.83983 11.89255,-3.18705 10.57883,-2.49586 21.2348,-0.99086 47.92839,6.76918 4.04422,1.17568 3.92835,1.00625 15.82996,23.14719 21.21576,39.46833 35.05363,67.21691 41.19437,82.60559 2.75563,6.9056 2.82627,7.24119 2.74661,13.04881 -0.0726,5.29076 -0.23162,6.12139 -1.41467,7.38832 -1.99276,2.13404 -4.23439,3.10633 -10.20339,4.42565 -5.27609,1.16618 -7.77865,1.19743 -108.56845,1.35612 -56.742326,0.0893 -104.104406,0.0543 -105.249064,-0.0779 z"
       id="path4067"
       inkscape:connector-curvature="0" />
    <path
       style="fill:#164450;stroke-width:0.5946275"
       d="M 42.935185,478.76255 C 22.374297,476.27287 9.7829542,469.97426 4.491261,459.5316 1.6885412,454.0007 0.97756804,449.94692 0.93763387,439.26975 0.90100785,429.4771 0.90507605,429.44645 3.0727962,423.19015 10.85856,400.71946 36.286943,351.31446 78.501503,276.63913 c 16.527463,-29.2362 19.475442,-34.83777 22.000037,-41.80305 4.03197,-11.12408 7.19713,-26.21771 8.2634,-39.40544 2.13534,-26.41007 0.67944,-74.54043 -2.36576,-78.20968 -0.35536,-0.42818 -2.0285,-1.18159 -3.71809,-1.67424 -8.057702,-2.34949 -15.511334,-9.50811 -18.195203,-17.475042 -4.644683,-13.787539 3.59629,-29.499599 17.634223,-33.621015 3.95746,-1.161876 54.07156,-1.882617 80.43953,-1.156881 l 17.54151,0.482802 4.49862,2.141382 c 5.93148,2.823431 10.13879,7.028466 12.97565,12.968611 2.06531,4.324561 2.14844,4.751703 2.14844,11.039524 0,6.110067 -0.12395,6.802522 -1.88172,10.512779 -3.27924,6.92177 -10.31942,13.09714 -17.2174,15.10244 -1.70489,0.49562 -3.36633,1.22314 -3.69208,1.6167 -1.99363,2.40862 -3.29432,20.28621 -3.31836,45.60995 -0.0323,34.09054 2.17412,52.15424 8.61749,70.54812 2.67508,7.63655 6.27975,14.53079 23.7096,45.34666 41.7377,73.79203 68.23403,125.57046 74.74247,146.05984 1.5672,4.93374 1.69106,6.01636 1.66418,14.54716 -0.0326,10.37009 -0.76248,14.69444 -3.34521,19.82127 -5.82922,11.57119 -18.81213,17.66539 -42.62373,20.00767 -3.93895,0.38746 -42.29363,0.58276 -106.43832,0.54197 C 69.028278,479.58922 48.361504,479.4196 42.935185,478.76255 Z M 254.50956,461.85273 c 18.61362,-1.59668 27.66901,-5.34475 29.73966,-12.3094 0.36729,-1.23536 0.81632,-5.18951 0.99785,-8.78701 0.31099,-6.16322 0.22606,-6.84992 -1.47087,-11.89255 -7.17137,-21.3105 -33.82799,-72.87282 -77.62098,-150.14344 -6.2093,-10.95601 -12.66568,-22.59584 -14.34752,-25.8663 -7.33096,-14.25558 -13.12847,-36.61024 -14.66381,-56.54232 -1.02691,-13.33147 -0.37158,-66.62886 0.91625,-74.51793 2.55414,-15.64628 5.94664,-20.6837 15.21784,-22.596551 4.09606,-0.845108 6.78418,-2.44727 8.31295,-4.954644 2.37318,-3.892329 1.06106,-8.858071 -3.16868,-11.991966 -1.66907,-1.236637 -1.94511,-1.24393 -47.08524,-1.24393 h -45.40633 l -1.87596,1.783882 c -3.71939,3.536823 -4.599133,7.792064 -2.36763,11.452014 1.59798,2.620906 4.13198,4.046464 9.19506,5.172893 8.60443,1.914302 11.93388,7.226752 14.3632,22.917822 1.2446,8.03887 1.87676,59.51625 0.89594,72.95743 -1.57712,21.61304 -7.59515,44.50487 -15.67992,59.6445 -1.65914,3.10693 -7.96106,14.34539 -14.004258,24.97436 -26.007954,45.74359 -44.402489,79.73047 -58.894334,108.81683 -10.419196,20.9122 -15.067881,31.24309 -18.060957,40.13735 -1.696936,5.04263 -1.781866,5.72933 -1.470871,11.89255 0.39139,7.75649 1.070911,10.35577 3.401067,13.00967 3.459704,3.94039 13.792223,7.11548 26.090254,8.0173 10.197035,0.74775 198.343859,0.81088 206.987289,0.0694 z"
       id="path4069"
       inkscape:connector-curvature="0" />
    <path
       style="fill:#ffffff;stroke-width:0.25839794"
       d="m 54.765132,211.69102 c 0.103193,-0.24871 0.193153,-0.59754 0.199911,-0.77519 0.0068,-0.17765 0.116051,-0.323 0.242871,-0.323 0.126819,0 0.158717,-0.11628 0.07088,-0.2584 -0.08783,-0.14212 -0.02969,-0.2584 0.129199,-0.2584 0.158894,0 0.217034,-0.11628 0.129199,-0.25839 -0.08783,-0.14212 -0.02969,-0.2584 0.129199,-0.2584 0.158894,0 0.217034,-0.11628 0.129199,-0.2584 -0.08783,-0.14212 -0.02969,-0.2584 0.129199,-0.2584 0.158894,0 0.217034,-0.11628 0.129199,-0.2584 -0.08783,-0.14211 -0.02969,-0.25839 0.129199,-0.25839 0.158894,0 0.217033,-0.11628 0.129199,-0.2584 -0.08783,-0.14212 -0.03656,-0.2584 0.113949,-0.2584 0.150507,0 0.245811,-0.0872 0.211787,-0.1938 -0.0792,-0.24811 4.260292,-8.95044 4.520835,-9.066 0.107475,-0.0477 0.129682,-0.19301 0.04935,-0.32299 -0.08033,-0.12998 -0.01606,-0.23633 0.142839,-0.23633 0.158894,0 0.217033,-0.11628 0.129199,-0.2584 -0.08783,-0.14212 -0.0297,-0.2584 0.129199,-0.2584 0.158894,0 0.217033,-0.11628 0.129199,-0.2584 -0.08783,-0.14211 -0.0297,-0.25839 0.129199,-0.25839 0.158894,0 0.217033,-0.11628 0.129199,-0.2584 -0.08783,-0.14212 -0.0297,-0.2584 0.129199,-0.2584 0.158893,0 0.217033,-0.11628 0.129199,-0.2584 -0.08783,-0.14212 -0.0297,-0.25839 0.129199,-0.25839 0.158893,0 0.217033,-0.11628 0.129199,-0.2584 -0.08783,-0.14212 -0.0297,-0.2584 0.129199,-0.2584 0.158893,0 0.217033,-0.11628 0.129198,-0.2584 -0.08783,-0.14212 -0.02969,-0.2584 0.129199,-0.2584 0.158894,0 0.217034,-0.11628 0.129199,-0.25839 -0.08783,-0.14212 -0.05794,-0.2584 0.06644,-0.2584 0.124375,0 0.567284,-0.72675 0.984242,-1.61499 0.416958,-0.88824 0.84604,-1.65399 0.953514,-1.70166 0.107475,-0.0477 0.129682,-0.19301 0.04935,-0.32299 -0.08033,-0.12998 -0.01605,-0.23633 0.142839,-0.23633 0.158894,0 0.217033,-0.11628 0.129199,-0.2584 -0.08784,-0.14212 -0.0297,-0.2584 0.129199,-0.2584 0.158894,0 0.217033,-0.11628 0.129199,-0.2584 -0.08784,-0.14211 -0.0297,-0.25839 0.129199,-0.25839 0.158893,0 0.217033,-0.11628 0.129199,-0.2584 -0.08784,-0.14212 -0.05973,-0.2584 0.06246,-0.2584 0.242923,0 1.482511,-2.33507 1.406016,-2.64858 -0.02601,-0.10659 0.07585,-0.1938 0.226361,-0.1938 0.150506,0 0.201784,-0.11628 0.113949,-0.25839 -0.08783,-0.14212 -0.0297,-0.2584 0.129199,-0.2584 0.158894,0 0.217033,-0.11628 0.129199,-0.2584 -0.08783,-0.14212 -0.0297,-0.2584 0.129199,-0.2584 0.158894,0 0.217033,-0.11628 0.129199,-0.2584 -0.08783,-0.14211 -0.05809,-0.25839 0.06609,-0.25839 0.245387,0 1.219171,-1.81578 1.143256,-2.13179 -0.02561,-0.10659 0.07658,-0.1938 0.227092,-0.1938 0.150506,0 0.201783,-0.11627 0.113949,-0.25839 -0.08783,-0.14212 -0.0297,-0.2584 0.129199,-0.2584 0.158893,0 0.217033,-0.11628 0.129199,-0.2584 -0.08783,-0.14212 -0.063,-0.2584 0.05519,-0.2584 0.256957,0 1.264622,-1.82053 1.172202,-2.1178 -0.03553,-0.11428 0.05854,-0.20778 0.209048,-0.20778 0.150506,0 0.201784,-0.11628 0.113949,-0.2584 -0.08783,-0.14212 -0.0297,-0.25839 0.129199,-0.25839 0.158894,0 0.217033,-0.11628 0.129199,-0.2584 -0.08783,-0.14212 -0.063,-0.2584 0.05519,-0.2584 0.256957,0 1.264623,-1.82053 1.172202,-2.1178 -0.03553,-0.11428 0.05854,-0.20778 0.209049,-0.20778 0.150506,0 0.201783,-0.11628 0.113949,-0.2584 -0.08783,-0.14212 -0.0297,-0.2584 0.129199,-0.2584 0.158893,0 0.217033,-0.11628 0.129199,-0.2584 -0.08783,-0.14211 -0.05522,-0.25839 0.07247,-0.25839 0.249288,0 0.951789,-1.29363 0.877014,-1.61499 -0.0248,-0.10659 0.07805,-0.1938 0.228554,-0.1938 0.150506,0 0.201784,-0.11628 0.113949,-0.2584 -0.08783,-0.14212 -0.063,-0.25839 0.05519,-0.25839 0.256957,0 1.264622,-1.82054 1.172201,-2.11781 -0.03553,-0.11427 0.05854,-0.20778 0.209049,-0.20778 0.150506,0 0.201783,-0.11627 0.113949,-0.25839 -0.08783,-0.14212 -0.05522,-0.2584 0.07247,-0.2584 0.249288,0 0.951789,-1.29363 0.877014,-1.61499 -0.0248,-0.10659 0.07805,-0.1938 0.228554,-0.1938 0.150507,0 0.201784,-0.11628 0.11395,-0.2584 -0.08783,-0.14211 -0.05522,-0.25839 0.07247,-0.25839 0.249288,0 0.951789,-1.29363 0.877014,-1.61499 -0.0248,-0.10659 0.07805,-0.1938 0.228554,-0.1938 0.150506,0 0.201784,-0.11628 0.113949,-0.2584 -0.08783,-0.14212 -0.05522,-0.25839 0.07247,-0.25839 0.249288,0 0.951788,-1.29363 0.877013,-1.61499 -0.02481,-0.10659 0.07805,-0.1938 0.228556,-0.1938 0.150506,0 0.201783,-0.11628 0.113948,-0.2584 -0.08783,-0.14212 -0.04408,-0.2584 0.09722,-0.2584 0.141305,0 0.404085,-0.40697 0.583953,-0.90439 0.179868,-0.49741 0.426814,-0.90439 0.548773,-0.90439 0.121956,0 0.149873,-0.11628 0.06204,-0.2584 -0.08783,-0.14212 -0.05522,-0.2584 0.07247,-0.2584 0.249287,0 0.951789,-1.29363 0.877013,-1.61498 -0.02481,-0.10659 0.07805,-0.1938 0.228556,-0.1938 0.150506,0 0.201783,-0.11628 0.113948,-0.2584 -0.08783,-0.14212 -0.05522,-0.2584 0.07247,-0.2584 0.249287,0 0.951788,-1.29363 0.877013,-1.61499 -0.02481,-0.10658 0.09057,-0.19379 0.256372,-0.19379 0.165804,0 0.230946,-0.0705 0.144757,-0.15671 -0.08619,-0.0862 0.06483,-0.3945 0.335597,-0.68513 0.270765,-0.29063 0.431318,-0.62709 0.356786,-0.74768 -0.07453,-0.1206 -0.0055,-0.21927 0.153385,-0.21927 0.158894,0 0.217033,-0.11628 0.129199,-0.2584 -0.08783,-0.14212 -0.03877,-0.2584 0.109025,-0.2584 0.147799,0 0.341685,-0.29069 0.430861,-0.64599 0.08917,-0.3553 0.272669,-0.646 0.40777,-0.646 0.135098,0 0.17377,-0.11627 0.08593,-0.25839 -0.08783,-0.14212 -0.01718,-0.2584 0.157016,-0.2584 0.174194,0 0.246196,-0.0705 0.160008,-0.15671 -0.08619,-0.0862 0.06483,-0.39449 0.335597,-0.68512 0.270764,-0.29064 0.431317,-0.6271 0.356785,-0.74769 -0.07453,-0.1206 -0.0055,-0.21927 0.153385,-0.21927 0.158894,0 0.217034,-0.11628 0.129199,-0.25839 -0.08783,-0.14212 -0.03877,-0.2584 0.109026,-0.2584 0.147798,0 0.341685,-0.2907 0.43086,-0.646 0.08917,-0.35529 0.27267,-0.64599 0.40777,-0.64599 0.135099,0 0.17377,-0.11628 0.08594,-0.2584 -0.08783,-0.14212 -0.04557,-0.2584 0.09391,-0.2584 0.139486,0 0.387923,-0.40697 0.552086,-0.90439 0.164162,-0.49742 0.396721,-0.90439 0.516795,-0.90439 0.120075,0 0.352634,-0.40698 0.516796,-0.9044 0.164163,-0.49741 0.4126,-0.90439 0.552086,-0.90439 0.139483,0 0.181744,-0.11628 0.09391,-0.2584 -0.08783,-0.14212 -0.04916,-0.2584 0.08594,-0.2584 0.1351,0 0.316555,-0.28256 0.403235,-0.62792 0.08668,-0.34536 0.302775,-0.78141 0.480209,-0.96899 0.177437,-0.18759 0.525382,-0.74805 0.773212,-1.24546 0.247832,-0.49742 0.56248,-1.07881 0.69922,-1.29199 1.641157,-2.5586 6.726965,-12.53281 6.911475,-13.55468 0.0502,-0.27807 0.2337,-0.59605 0.40776,-0.70663 0.17406,-0.11059 0.21502,-0.20284 0.091,-0.20502 -0.12399,-0.002 -0.0807,-0.17837 0.0962,-0.39155 0.17692,-0.21318 0.23506,-0.3876 0.1292,-0.3876 -0.10586,0 -0.0477,-0.17442 0.1292,-0.3876 0.17692,-0.21318 0.23506,-0.38759 0.1292,-0.38759 -0.10586,0 -0.0477,-0.17442 0.1292,-0.3876 0.17692,-0.21318 0.24774,-0.3876 0.15737,-0.3876 -0.0904,0 0.006,-0.40697 0.21357,-0.90439 0.20784,-0.49742 0.31144,-0.90439 0.23023,-0.90439 -0.0812,0 -0.0181,-0.15605 0.14014,-0.34678 0.15829,-0.19072 0.2141,-0.42047 0.12402,-0.51055 -0.0901,-0.0901 -0.0319,-0.32263 0.12919,-0.51679 0.16114,-0.19416 0.21928,-0.42672 0.1292,-0.5168 -0.0901,-0.0901 -0.0167,-0.34101 0.16308,-0.55762 0.17978,-0.21661 0.26498,-0.39384 0.18933,-0.39384 -0.0756,0 0.029,-0.66861 0.23259,-1.48579 0.20356,-0.81718 0.4296,-1.9509 0.50231,-2.51938 0.0727,-0.56847 0.20025,-1.20801 0.28341,-1.42119 0.0832,-0.21318 0.18481,-0.67829 0.22588,-1.03359 0.0411,-0.3553 0.25271,-1.9832 0.47033,-3.61757 0.8301,-6.23431 1.00963,-11.089987 0.8667,-23.441276 -0.13758,-11.88893 -0.49466,-17.906295 -1.23771,-20.857189 -0.25455,-1.010912 -0.4644,-1.285762 -1.3118,-1.71807 -0.55482,-0.283051 -1.12106,-0.445237 -1.25831,-0.360416 -0.13724,0.08482 -0.24953,0.01863 -0.24953,-0.147072 0,-0.165711 -0.17442,-0.234364 -0.3876,-0.152558 -0.21318,0.0818 -0.3876,0.02924 -0.3876,-0.116804 0,-0.146046 -0.11628,-0.193674 -0.25839,-0.10584 -0.14212,0.08783 -0.2584,0.0297 -0.2584,-0.129199 0,-0.158894 -0.116279,-0.217033 -0.258398,-0.129199 -0.142119,0.08783 -0.258398,0.03877 -0.258398,-0.109025 0,-0.147799 -0.290698,-0.341685 -0.645995,-0.430861 -0.355297,-0.08917 -0.645995,-0.265806 -0.645995,-0.392519 0,-0.126711 -0.146447,-0.230385 -0.325439,-0.230385 -0.178992,0 -0.470677,-0.232558 -0.648186,-0.516796 -0.177509,-0.284238 -0.45885,-0.516796 -0.625204,-0.516796 -0.327949,0 -2.115287,-1.801618 -2.135551,-2.152613 -0.0068,-0.118045 -0.238103,-0.379673 -0.513974,-0.581395 -0.275871,-0.201722 -0.39215,-0.370465 -0.258398,-0.374985 0.133752,-0.0045 0.03195,-0.168349 -0.226217,-0.364066 -0.25817,-0.195716 -0.463049,-0.453646 -0.455287,-0.573177 0.02892,-0.445147 -0.281056,-1.121723 -0.513912,-1.121723 -0.13254,0 -0.221413,-0.08721 -0.197491,-0.193798 0.09417,-0.419627 -0.372411,-2.131783 -0.580938,-2.131783 -0.121839,0 -0.154599,-0.174419 -0.0728,-0.387597 0.08181,-0.213178 0.0643,-0.591085 -0.03889,-0.839793 -0.243028,-0.585733 -0.243028,-3.419435 0,-4.005168 0.103191,-0.248708 0.120693,-0.626615 0.03889,-0.839793 -0.0818,-0.213179 -0.02253,-0.387597 0.131693,-0.387597 0.154233,0 0.226313,-0.206922 0.160178,-0.459827 -0.06614,-0.252904 0.04444,-0.613671 0.245732,-0.801703 0.201289,-0.188033 0.303627,-0.504367 0.227418,-0.702965 -0.07621,-0.198598 -0.04004,-0.361087 0.08038,-0.361087 0.22283,0 0.888161,-1.393298 0.807985,-1.692034 -0.02419,-0.0901 0.167269,-0.323945 0.425439,-0.519662 0.258171,-0.195716 0.373271,-0.359545 0.255778,-0.364065 -0.117491,-0.0045 0.144447,-0.309515 0.58209,-0.677766 0.437641,-0.368252 0.740845,-0.758326 0.673783,-0.866832 -0.157315,-0.254544 1.012719,-1.361281 1.22,-1.153999 0.0862,0.0862 0.309031,-0.08716 0.495184,-0.385234 0.186152,-0.298077 0.484907,-0.541958 0.663899,-0.541958 0.178992,0 0.325439,-0.135659 0.325439,-0.301464 0,-0.165806 0.07091,-0.230551 0.157587,-0.143878 0.08667,0.08667 0.597155,-0.1199 1.134403,-0.459051 0.537248,-0.33915 1.047735,-0.545723 1.134405,-0.459051 0.0867,0.08667 0.15758,0.02558 0.15758,-0.135768 0,-0.161345 0.17442,-0.226423 0.3876,-0.144619 0.21318,0.0818 0.3876,0.0445 0.3876,-0.0829 0,-0.127396 0.26163,-0.233782 0.58139,-0.236413 0.31977,-0.0026 1.62791,-0.04362 2.90698,-0.09108 1.75168,-0.065 2.07051,-0.125237 1.29199,-0.244084 -1.25038,-0.19088 44.60141,-0.132749 46.68635,0.05919 0.8067,0.07426 1.74621,0.318155 2.08781,0.541982 0.3416,0.223826 0.69903,0.32903 0.79427,0.233785 0.0952,-0.09524 0.17317,-0.03065 0.17317,0.143543 0,0.174193 0.10635,0.250987 0.23633,0.170655 0.12998,-0.08033 0.27533,-0.03778 0.323,0.09457 0.0477,0.132346 0.2477,0.278419 0.44453,0.324608 0.19682,0.04619 0.65109,0.346762 1.00949,0.66794 0.3584,0.321179 0.69268,0.542909 0.74286,0.492733 0.15119,-0.151188 3.07208,2.783745 2.98057,2.994899 -0.0466,0.107592 0.0963,0.265126 0.31771,0.350073 0.22137,0.08495 0.33765,0.259366 0.2584,0.387597 -0.0793,0.128231 0.037,0.302649 0.2584,0.387597 0.22137,0.08495 0.33815,0.258545 0.25952,0.385772 -0.0786,0.127227 -0.013,0.231322 0.14594,0.231322 0.15889,0 0.21703,0.116279 0.12919,0.258397 -0.0878,0.142119 -0.0297,0.258398 0.1292,0.258398 0.1589,0 0.21704,0.11628 0.1292,0.258398 -0.0878,0.142119 -0.0402,0.258398 0.10584,0.258398 0.14605,0 0.19861,0.174419 0.11681,0.387597 -0.0818,0.213178 -0.02,0.387597 0.1373,0.387597 0.15733,0 0.27228,0.08721 0.25545,0.193799 -0.0168,0.106589 -0.008,0.251938 0.0198,0.322997 0.4134,1.060376 0.41622,7.909463 0.003,8.406811 -0.17287,0.208295 -0.21287,0.380499 -0.0889,0.382676 0.12399,0.0022 0.10915,0.08939 -0.033,0.193798 -0.32184,0.236448 -1.24507,2.028743 -1.17227,2.275748 0.0295,0.100043 -0.046,0.253035 -0.16784,0.339984 -0.12179,0.08695 -1.09942,1.088321 -2.1725,2.225272 -1.07308,1.136951 -2.0261,2.067184 -2.11782,2.067184 -0.0917,0 -0.37403,0.174418 -0.62735,0.387597 -0.55405,0.466261 -1.93438,1.141597 -2.20476,1.078684 -0.10658,-0.0248 -0.19379,0.07119 -0.19379,0.213305 0,0.142119 -0.0872,0.244628 -0.1938,0.227799 -0.10659,-0.01682 -0.28101,-0.0023 -0.3876,0.0323 -0.10659,0.03459 -0.28101,0.08261 -0.38759,0.106702 -1.04597,0.236424 -2.13179,0.843783 -2.13179,1.192429 0,0.232003 -0.0809,0.502706 -0.17974,0.601566 -0.33268,0.332675 -0.46934,1.286055 -0.98669,6.883132 -0.0591,0.639535 -0.18394,6.823137 -0.27739,13.741341 -0.15415,11.411749 0.0331,18.912718 0.56329,22.563568 0.0619,0.42636 0.17558,1.29845 0.25258,1.93799 0.38916,3.23207 0.50408,3.92637 0.73571,4.44499 0.10804,0.2419 0.11798,0.56676 0.0221,0.72191 -0.0959,0.15515 -0.038,0.44632 0.12855,0.64705 0.16659,0.20073 0.22473,0.49142 0.1292,0.64599 -0.0955,0.15458 -0.0374,0.44527 0.1292,0.646 0.16658,0.20073 0.23284,0.4783 0.14723,0.61682 -0.0856,0.13853 -0.0449,0.32033 0.0905,0.404 0.13539,0.0837 0.24956,0.35334 0.25371,0.59925 0.009,0.54352 0.19294,1.71451 0.28306,1.8037 0.0359,0.0355 0.0944,0.18088 0.12988,0.323 0.0355,0.14212 0.0968,0.34561 0.13625,0.4522 0.0394,0.10658 0.0987,0.31007 0.1317,0.45219 0.033,0.14212 0.088,0.34561 0.12214,0.4522 0.0342,0.10659 0.0912,0.31008 0.1267,0.45219 0.0355,0.14212 0.0937,0.31654 0.1292,0.3876 0.0355,0.0711 0.0937,0.24548 0.1292,0.3876 0.0355,0.14212 0.0937,0.31654 0.1292,0.3876 0.0355,0.071 0.0892,0.2164 0.11922,0.32299 0.03,0.10659 0.14757,0.42636 0.26118,0.7106 0.11361,0.28423 0.65536,1.67958 1.20389,3.10077 0.9351,2.42278 5.06984,10.40794 7.62655,14.72868 0.33639,0.56848 0.80292,1.46964 1.03674,2.00259 0.23382,0.53294 0.53063,0.96899 0.65958,0.96899 0.12895,0 0.16259,0.11628 0.0747,0.2584 -0.0878,0.14212 -0.0492,0.2584 0.0859,0.2584 0.1351,0 0.3186,0.29069 0.40777,0.64599 0.0892,0.3553 0.28306,0.646 0.43086,0.646 0.1478,0 0.19686,0.11628 0.10902,0.25839 -0.0878,0.14212 -0.0599,0.2584 0.062,0.2584 0.12196,0 0.36891,0.40698 0.54878,0.90439 0.17986,0.49742 0.43578,0.9044 0.5687,0.9044 0.13292,0 0.22138,0.0872 0.19658,0.1938 -0.0748,0.32136 0.62773,1.61498 0.87701,1.61498 0.1277,0 0.16031,0.11628 0.0725,0.2584 -0.0878,0.14212 -0.0492,0.2584 0.0859,0.2584 0.1351,0 0.3186,0.2907 0.40777,0.64599 0.0892,0.3553 0.28306,0.646 0.43086,0.646 0.1478,0 0.19686,0.11628 0.10903,0.2584 -0.0878,0.14212 -0.0366,0.25839 0.11395,0.25839 0.1505,0 0.25335,0.0872 0.22855,0.1938 -0.0748,0.32136 0.62773,1.61499 0.87701,1.61499 0.1277,0 0.16031,0.11628 0.0725,0.2584 -0.0878,0.14212 -0.0492,0.2584 0.0859,0.2584 0.1351,0 0.3186,0.29069 0.40777,0.64599 0.0892,0.3553 0.28307,0.646 0.43086,0.646 0.1478,0 0.19686,0.11627 0.10903,0.25839 -0.0878,0.14212 -0.0366,0.2584 0.11395,0.2584 0.1505,0 0.25335,0.0872 0.22855,0.1938 -0.0748,0.32136 0.62773,1.61499 0.87702,1.61499 0.12769,0 0.1603,0.11628 0.0725,0.2584 -0.0878,0.14211 -0.0297,0.25839 0.1292,0.25839 0.15889,0 0.22792,0.0987 0.15338,0.21927 -0.0745,0.12059 0.086,0.45705 0.35679,0.74769 0.27076,0.29063 0.42178,0.59893 0.3356,0.68512 -0.0862,0.0862 -0.0211,0.15671 0.14475,0.15671 0.16581,0 0.28118,0.0872 0.25637,0.1938 -0.0748,0.32136 0.62773,1.61498 0.87702,1.61498 0.12769,0 0.16031,0.11628 0.0725,0.2584 -0.0878,0.14212 -0.0366,0.2584 0.11395,0.2584 0.15051,0 0.25336,0.0872 0.22855,0.1938 -0.0748,0.32136 0.62773,1.61499 0.87702,1.61499 0.12769,0 0.1603,0.11627 0.0725,0.25839 -0.0878,0.14212 -0.0172,0.2584 0.15702,0.2584 0.17419,0 0.24225,0.0745 0.15125,0.16546 -0.19869,0.19869 0.6149,1.64333 0.92548,1.64333 0.11987,0 0.14607,0.11628 0.0582,0.25839 -0.0878,0.14212 -0.0297,0.2584 0.1292,0.2584 0.15889,0 0.21703,0.11628 0.1292,0.2584 -0.0878,0.14212 -0.0366,0.2584 0.11395,0.2584 0.1505,0 0.25335,0.0872 0.22855,0.1938 -0.0748,0.32136 0.62773,1.61498 0.87701,1.61498 0.1277,0 0.16031,0.11628 0.0725,0.2584 -0.0878,0.14212 -0.0366,0.2584 0.11395,0.2584 0.1505,0 0.24457,0.0935 0.20904,0.20778 -0.0924,0.29727 0.91525,2.1178 1.17221,2.1178 0.11819,0 0.14302,0.11628 0.0552,0.2584 -0.0878,0.14212 -0.0366,0.2584 0.11394,0.2584 0.15051,0 0.25336,0.0872 0.22856,0.1938 -0.0748,0.32135 0.62773,1.61498 0.87701,1.61498 0.1277,0 0.16031,0.11628 0.0725,0.2584 -0.0878,0.14212 -0.0297,0.2584 0.1292,0.2584 0.1589,0 0.21704,0.11628 0.1292,0.2584 -0.0878,0.14212 -0.0366,0.25839 0.11395,0.25839 0.15051,0 0.24458,0.0935 0.20905,0.20778 -0.0924,0.29727 0.91525,2.11781 1.1722,2.11781 0.11819,0 0.14302,0.11627 0.0552,0.25839 -0.0878,0.14212 -0.0297,0.2584 0.1292,0.2584 0.15889,0 0.21703,0.11628 0.1292,0.2584 -0.0878,0.14212 -0.0366,0.2584 0.11395,0.2584 0.1505,0 0.24458,0.0935 0.20905,0.20778 -0.0924,0.29726 0.91524,2.1178 1.1722,2.1178 0.11819,0 0.14302,0.11628 0.0552,0.2584 -0.0878,0.14212 -0.0297,0.25839 0.12919,0.25839 0.1589,0 0.21704,0.11628 0.1292,0.2584 -0.0878,0.14212 -0.0297,0.2584 0.1292,0.2584 0.1589,0 0.21704,0.11628 0.1292,0.2584 -0.0878,0.14212 -0.0366,0.2584 0.11395,0.2584 0.15051,0 0.2527,0.0872 0.22709,0.1938 -0.0759,0.316 0.89787,2.13178 1.14326,2.13178 0.12418,0 0.15392,0.11628 0.0661,0.2584 -0.0878,0.14211 -0.0297,0.25839 0.1292,0.25839 0.15889,0 0.21703,0.11628 0.1292,0.2584 -0.0878,0.14212 -0.0297,0.2584 0.1292,0.2584 0.15889,0 0.21703,0.11628 0.1292,0.2584 -0.0878,0.14212 -0.0297,0.2584 0.12919,0.2584 0.1589,0 0.22317,0.10634 0.14284,0.23632 -0.0803,0.12998 -0.0581,0.27533 0.0494,0.323 0.10748,0.0477 0.47691,0.69714 0.82098,1.44326 0.34406,0.74612 0.72883,1.35659 0.85504,1.35659 0.12621,0 0.15761,0.11628 0.0698,0.2584 -0.0878,0.14212 -0.0297,0.25839 0.1292,0.25839 0.15889,0 0.21703,0.11628 0.1292,0.2584 -0.0878,0.14212 -0.0297,0.2584 0.1292,0.2584 0.15889,0 0.21703,0.11628 0.12919,0.2584 -0.0878,0.14212 -0.0297,0.2584 0.1292,0.2584 0.1589,0 0.21704,0.11628 0.1292,0.25839 -0.0878,0.14212 -0.0297,0.2584 0.1292,0.2584 0.1589,0 0.22317,0.10635 0.14284,0.23633 -0.0803,0.12998 -0.0509,0.27533 0.0655,0.323 0.11635,0.0477 0.95036,1.62736 1.85336,3.51044 0.903,1.88307 1.74563,3.42377 1.8725,3.42377 0.12687,0 0.15881,0.11628 0.071,0.2584 -0.0878,0.14212 -0.0297,0.2584 0.1292,0.2584 0.15889,0 0.21703,0.11628 0.1292,0.2584 -0.0878,0.14211 -0.0297,0.25839 0.1292,0.25839 0.15889,0 0.21703,0.11628 0.1292,0.2584 -0.0878,0.14212 -0.0297,0.2584 0.12919,0.2584 0.1589,0 0.21704,0.11628 0.1292,0.2584 -0.0878,0.14212 -0.0297,0.2584 0.1292,0.2584 0.1589,0 0.21704,0.11627 0.1292,0.25839 -0.0878,0.14212 -0.0297,0.2584 0.1292,0.2584 0.15889,0 0.21703,0.11628 0.1292,0.2584 -0.0878,0.14212 -0.0297,0.2584 0.1292,0.2584 0.15889,0 0.21703,0.11628 0.1292,0.2584 -0.0878,0.14211 -0.0297,0.25839 0.1292,0.25839 0.15889,0 0.21703,0.11628 0.12919,0.2584 -0.0878,0.14212 -0.0297,0.2584 0.1292,0.2584 0.1589,0 0.21704,0.11628 0.1292,0.2584 -0.0878,0.14212 -0.0172,0.2584 0.15702,0.2584 0.17419,0 0.23927,0.0774 0.14462,0.17209 -0.0947,0.0947 0.63915,1.72256 1.63068,3.61757 l 1.80278,3.44548 h -5.24715 -5.24715 l -0.62556,-1.34938 c -3.68401,-7.9466 -17.85408,-34.3994 -28.56551,-53.32632 -1.61624,-2.85587 -2.93861,-5.3268 -2.93861,-5.49095 0,-0.16416 -0.12315,-0.29847 -0.27365,-0.29847 -0.15051,0 -0.20179,-0.11628 -0.11395,-0.2584 0.0878,-0.14212 0.0441,-0.25839 -0.0972,-0.25839 -0.1413,0 -0.40408,-0.40698 -0.58395,-0.9044 -0.17987,-0.49741 -0.41243,-0.90439 -0.51679,-0.90439 -0.10437,0 -0.33693,-0.40698 -0.5168,-0.90439 -0.17987,-0.49742 -0.42681,-0.9044 -0.54877,-0.9044 -0.12196,0 -0.14988,-0.11628 -0.062,-0.25839 0.0878,-0.14212 0.0456,-0.2584 -0.0939,-0.2584 -0.13949,0 -0.38792,-0.40698 -0.55209,-0.90439 -0.16416,-0.49742 -0.39672,-0.9044 -0.51679,-0.9044 -0.12008,0 -0.35264,-0.40697 -0.5168,-0.90439 -0.16416,-0.49742 -0.4126,-0.90439 -0.55208,-0.90439 -0.13949,0 -0.18175,-0.11628 -0.0939,-0.2584 0.0878,-0.14212 0.0492,-0.2584 -0.0859,-0.2584 -0.1351,0 -0.3186,-0.2907 -0.40777,-0.64599 -0.0892,-0.3553 -0.28306,-0.646 -0.43086,-0.646 -0.1478,0 -0.19686,-0.11628 -0.10902,-0.2584 0.0878,-0.14212 0.0366,-0.25839 -0.11395,-0.25839 -0.15051,0 -0.25336,-0.0872 -0.22856,-0.1938 0.0792,-0.34037 -0.63493,-1.61499 -0.90483,-1.61499 -0.14299,0 -0.1871,-0.0729 -0.098,-0.16196 0.21916,-0.21915 -0.53759,-1.64683 -0.8729,-1.64683 -0.14686,0 -0.19515,-0.11627 -0.10732,-0.25839 0.0878,-0.14212 0.0172,-0.2584 -0.15701,-0.2584 -0.1742,0 -0.24699,-0.0697 -0.16177,-0.15494 0.17294,-0.17295 -1.86586,-4.31735 -2.19096,-4.45369 -0.11366,-0.0477 -0.14093,-0.19302 -0.0606,-0.323 0.0803,-0.12998 0.0266,-0.23633 -0.11949,-0.23633 -0.14604,0 -0.1986,-0.17442 -0.1168,-0.3876 0.0842,-0.2195 0.006,-0.38759 -0.18037,-0.38759 -0.18101,0 -0.25569,-0.0734 -0.16594,-0.16318 0.0897,-0.0897 0.026,-0.40951 -0.14158,-0.71059 -0.16761,-0.30108 -0.31543,-0.60556 -0.32849,-0.67662 -0.19613,-1.06721 -0.47343,-1.80879 -0.67634,-1.80879 -0.13922,0 -0.18622,-0.10824 -0.10446,-0.24054 0.0818,-0.1323 0.0356,-0.31044 -0.10266,-0.39587 -0.13823,-0.0854 -0.18583,-0.32603 -0.10577,-0.53465 0.0801,-0.20863 0.0205,-0.37932 -0.13237,-0.37932 -0.15287,0 -0.21101,-0.17442 -0.1292,-0.3876 0.0818,-0.21318 0.0237,-0.3876 -0.1292,-0.3876 -0.15286,0 -0.211,-0.17442 -0.1292,-0.3876 0.0818,-0.21317 0.0131,-0.38759 -0.15256,-0.38759 -0.16571,0 -0.23546,-0.10652 -0.15499,-0.23672 0.0805,-0.13019 0.0104,-0.56624 -0.15568,-0.96899 -0.16609,-0.40275 -0.27912,-0.83173 -0.25118,-0.95327 0.0279,-0.12155 -0.0686,-0.36481 -0.21443,-0.54058 -0.14587,-0.17576 -0.19645,-0.38834 -0.11239,-0.4724 0.0841,-0.0841 0.0613,-0.301 -0.0507,-0.48209 -0.11192,-0.18109 -0.23365,-0.61207 -0.2705,-0.95774 -0.0368,-0.34566 -0.14749,-0.81569 -0.24586,-1.04452 -0.0984,-0.22882 -0.22086,-0.6486 -0.27221,-0.93284 -0.24069,-1.33239 -0.29019,-1.55039 -0.35202,-1.55039 -0.0365,0 -0.10084,-0.29069 -0.14306,-0.64599 -0.0422,-0.3553 -0.13743,-0.93669 -0.21159,-1.29199 -0.0742,-0.3553 -0.20759,-0.99483 -0.29652,-1.42119 -0.0889,-0.42636 -0.1581,-1.09118 -0.15374,-1.47737 0.004,-0.3862 -0.0996,-0.76862 -0.23094,-0.84982 -0.13138,-0.0812 -0.17,-0.49196 -0.0858,-0.9128 0.0879,-0.43955 0.0432,-0.76518 -0.10515,-0.76518 -0.14201,0 -0.25913,-0.49418 -0.26027,-1.09819 -0.001,-0.604 -0.0719,-2.02842 -0.1572,-3.16537 -0.0853,-1.13695 -0.12807,-8.288119 -0.095,-15.891478 0.0331,-7.603359 0.06,-15.546483 0.06,-17.651385 -6e-5,-2.104902 0.0777,-3.55839 0.17283,-3.229974 0.10638,0.36731 0.1751,5.17e-4 0.17855,-0.953266 0.006,-1.725941 0.0847,-2.331755 0.66126,-5.104052 0.24752,-1.190214 0.29863,-1.363315 0.49578,-1.678894 0.11098,-0.177648 0.13488,-0.431243 0.0531,-0.56354 -0.0818,-0.1323 -0.0286,-0.314752 0.11816,-0.405452 0.14676,-0.0907 0.2049,-0.265118 0.1292,-0.387597 -0.0757,-0.122479 -0.0175,-0.296897 0.1292,-0.387597 0.14675,-0.0907 0.19993,-0.273153 0.11816,-0.405452 -0.0818,-0.132298 -0.047,-0.240543 0.0771,-0.240543 0.12418,0 0.40627,-0.377907 0.62686,-0.839793 0.37706,-0.789503 2.27863,-3.247779 2.27863,-2.94572 0,0.07664 0.65747,-0.16165 1.46105,-0.529541 0.80358,-0.36789 1.6466,-0.687547 1.87338,-0.710348 2.03441,-0.204538 4.19666,-1.618063 4.84359,-3.166396 0.82644,-1.977944 0.0328,-4.504441 -1.79499,-5.714141 l -1.04791,-0.693544 -24.13134,-0.06979 -24.13136,-0.06979 -0.90807,0.844982 c -2.44096,2.271348 -2.5511,5.353784 -0.26309,7.362692 0.78511,0.689329 2.28219,1.352658 3.40106,1.506943 0.14212,0.0196 0.4669,0.125967 0.72174,0.236377 0.25484,0.11041 0.52886,0.135231 0.60893,0.05516 0.0801,-0.08007 0.27855,-0.03463 0.44105,0.100979 0.16251,0.135611 0.935,0.65815 1.71665,1.161196 0.95019,0.611507 1.58484,1.252559 1.91496,1.934283 0.27157,0.560809 0.5982,1.019653 0.72584,1.019653 0.12765,0 0.16518,0.108245 0.0834,0.240544 -0.0818,0.132298 -0.0286,0.314751 0.11816,0.405451 0.14676,0.0907 0.19993,0.273153 0.11816,0.405452 -0.0818,0.132299 -0.0292,0.240543 0.11688,0.240543 0.14605,0 0.20312,0.162657 0.12683,0.36146 -0.0763,0.198804 -0.0126,0.439395 0.14153,0.534651 0.15412,0.09525 0.21829,0.273401 0.1426,0.395879 -0.0757,0.122478 -0.0245,0.292586 0.11369,0.378018 0.13824,0.08543 0.19034,0.314261 0.1158,0.508511 -0.0745,0.194254 -0.0164,0.426812 0.1292,0.516796 0.1456,0.08999 0.20136,0.328739 0.12392,0.530561 -0.0774,0.201822 -0.0441,0.517866 0.0742,0.702318 0.11824,0.184455 0.23529,0.56793 0.26011,0.852168 0.0248,0.284238 0.12668,1.040052 0.22635,1.679586 0.0997,0.639535 0.16066,1.831396 0.13552,2.648579 -0.0251,0.817184 0.0482,1.485693 0.16296,1.485576 0.11477,-1.16e-4 0.20867,1.715 0.20867,3.81137 0,2.096369 0.0277,9.160419 0.0617,15.697886 0.0339,6.537468 -0.006,13.107239 -0.0878,14.599489 -0.0822,1.49225 -0.17268,3.17882 -0.20102,3.74794 -0.0283,0.56913 -0.14512,1.1862 -0.2595,1.37128 -0.11439,0.18508 -0.13846,0.61347 -0.0535,0.95198 0.085,0.33851 0.0365,0.68838 -0.10768,0.77749 -0.14419,0.0891 -0.25984,0.47415 -0.25701,0.85563 0.003,0.38149 -0.0613,1.10059 -0.14259,1.598 -0.0813,0.49742 -0.17863,1.13695 -0.2164,1.42119 -0.0378,0.28424 -0.15705,0.71472 -0.26509,0.95662 -0.10804,0.2419 -0.1261,0.55363 -0.0401,0.69274 0.086,0.1391 0.0302,0.33085 -0.12391,0.42611 -0.15413,0.0952 -0.21216,0.35058 -0.12896,0.5674 0.0832,0.21682 0.0164,0.5567 -0.14841,0.7553 -0.16482,0.1986 -0.22597,0.43479 -0.1359,0.52487 0.0901,0.0901 0.0355,0.31834 -0.12128,0.50726 -0.15678,0.18892 -0.21757,0.51938 -0.13507,0.73437 0.0825,0.21499 0.0238,0.39089 -0.13043,0.39089 -0.15423,0 -0.21961,0.23256 -0.14527,0.51679 0.0743,0.28424 0.0162,0.5168 -0.1292,0.5168 -0.14539,0 -0.20353,0.23256 -0.1292,0.51679 0.0743,0.28424 0.0162,0.5168 -0.1292,0.5168 -0.14539,0 -0.20353,0.23256 -0.1292,0.5168 0.0743,0.28423 0.0173,0.51679 -0.12671,0.51679 -0.14402,0 -0.19492,0.17442 -0.11311,0.3876 0.0818,0.21318 0.031,0.3876 -0.11289,0.3876 -0.14388,0 -0.23787,0.14535 -0.20885,0.32299 0.029,0.17765 -0.083,0.65253 -0.24892,1.05528 -0.16592,0.40275 -0.24198,0.82887 -0.16902,0.94692 0.073,0.11806 0.019,0.25365 -0.11988,0.30132 -0.13889,0.0477 -0.28833,0.31922 -0.33208,0.60346 -0.0437,0.28424 -0.17026,0.66215 -0.28112,0.83979 -0.11087,0.17765 -0.12234,0.323 -0.0255,0.323 0.0968,0 0.0313,0.17442 -0.14559,0.3876 -0.17692,0.21318 -0.23506,0.38759 -0.1292,0.38759 0.10586,0 0.0477,0.17442 -0.1292,0.3876 -0.17692,0.21318 -0.22023,0.38938 -0.0962,0.39155 0.12399,0.002 0.0917,0.0894 -0.0717,0.1938 -0.16345,0.10442 -0.33786,0.4224 -0.3876,0.70664 -0.0497,0.28424 -0.18346,0.5854 -0.29717,0.66925 -0.11371,0.0838 -0.22566,0.40361 -0.24878,0.71059 -0.0231,0.30698 -0.14044,0.55815 -0.26071,0.55815 -0.12026,0 -0.14679,0.11627 -0.059,0.25839 0.0878,0.14212 0.0297,0.2584 -0.1292,0.2584 -0.15889,0 -0.21703,0.11628 -0.1292,0.2584 0.0878,0.14212 0.0479,0.2584 -0.0887,0.2584 -0.2444,0 -0.92486,1.49501 -0.85269,1.87338 0.0203,0.10659 -0.0862,0.1938 -0.23668,0.1938 -0.1505,0 -0.20178,0.11628 -0.11395,0.2584 0.0878,0.14212 0.0297,0.2584 -0.12919,0.2584 -0.1589,0 -0.21704,0.11628 -0.1292,0.25839 0.0878,0.14212 0.0297,0.2584 -0.1292,0.2584 -0.1589,0 -0.21704,0.11628 -0.1292,0.2584 0.0878,0.14212 0.0552,0.2584 -0.0725,0.2584 -0.24929,0 -0.95179,1.29363 -0.87702,1.61499 0.0248,0.10658 -0.0781,0.19379 -0.22855,0.19379 -0.15051,0 -0.20179,0.11628 -0.11395,0.2584 0.0878,0.14212 0.0388,0.2584 -0.10903,0.2584 -0.1478,0 -0.34168,0.2907 -0.43086,0.64599 -0.0892,0.3553 -0.27267,0.646 -0.40777,0.646 -0.1351,0 -0.17377,0.11628 -0.0859,0.2584 0.0878,0.14212 0.0552,0.2584 -0.0725,0.2584 -0.24928,0 -0.95178,1.29362 -0.87701,1.61498 0.0248,0.10659 -0.0622,0.1938 -0.19326,0.1938 -0.1311,0 -0.37268,0.40698 -0.53684,0.90439 -0.16416,0.49742 -0.4126,0.9044 -0.55208,0.9044 -0.13949,0 -0.18175,0.11628 -0.0939,0.25839 0.0878,0.14212 0.0388,0.2584 -0.10903,0.2584 -0.1478,0 -0.34168,0.2907 -0.43086,0.646 -0.0892,0.35529 -0.27267,0.64599 -0.40777,0.64599 -0.135098,0 -0.17377,0.11628 -0.08594,0.2584 0.08784,0.14212 0.04558,0.2584 -0.09391,0.2584 -0.139485,0 -0.387922,0.40697 -0.552085,0.90439 -0.164163,0.49742 -0.396721,0.90439 -0.516796,0.90439 -0.120075,0 -0.352633,0.40698 -0.516796,0.9044 -0.164162,0.49741 -0.412599,0.90439 -0.552085,0.90439 -0.139483,0 -0.181744,0.11628 -0.09391,0.2584 0.08783,0.14212 0.04916,0.2584 -0.08594,0.2584 -0.135101,0 -0.318597,0.29069 -0.40777,0.64599 -0.08918,0.3553 -0.283062,0.64599 -0.43086,0.64599 -0.147799,0 -0.196861,0.11628 -0.109026,0.2584 0.08783,0.14212 0.04916,0.2584 -0.08594,0.2584 -0.1351,0 -0.313214,0.26926 -0.395811,0.59834 -0.0826,0.32909 -0.385899,0.87014 -0.674008,1.20233 -0.288113,0.33219 -0.523837,0.74282 -0.523837,0.91251 0,0.16969 -0.232558,0.57666 -0.516796,0.90439 -0.284237,0.32773 -0.516796,0.74419 -0.516796,0.92547 0,0.18129 -0.149268,0.48326 -0.331708,0.67106 -0.182439,0.1878 -0.649754,0.99707 -1.038475,1.79838 -0.388724,0.80131 -1.011408,1.90584 -1.383747,2.45451 -0.372336,0.54867 -0.788491,1.31747 -0.924785,1.70845 -0.136295,0.39098 -0.343096,0.71087 -0.459559,0.71087 -0.116459,0 -0.411581,0.52325 -0.655821,1.16279 -0.244241,0.63953 -0.551419,1.16279 -0.682615,1.16279 -0.131199,0 -0.16668,0.11628 -0.07885,0.25839 0.08783,0.14212 0.05992,0.2584 -0.06204,0.2584 -0.121959,0 -0.368904,0.40698 -0.548773,0.9044 -0.179868,0.49741 -0.442648,0.90439 -0.583953,0.90439 -0.141308,0 -0.191196,0.10635 -0.110866,0.23633 0.08033,0.12998 0.05813,0.27532 -0.04935,0.32299 -0.107475,0.0477 -0.491837,0.66807 -0.854139,1.37866 -0.362302,0.7106 -2.122225,3.96641 -3.910935,7.23514 -5.218632,9.53666 -8.735861,16.22852 -13.207537,25.12861 l -4.186621,8.33274 -5.131005,5.9e-4 c -4.786009,5.6e-4 -5.11839,-0.0298 -4.943383,-0.4516 z"
       id="path41"
       inkscape:connector-curvature="0"
       transform="matrix(1.876793,0,0,1.876793,-88.5905,0)" />
    <path
       style="fill:#ffffff;stroke-width:0.25839794"
       d="m 120.78574,82.621253 c 0.002,-0.177648 0.17472,-0.962532 0.38453,-1.744186 0.2098,-0.781653 0.38284,-1.450258 0.38453,-1.485788 0.002,-0.03553 -0.57833,-0.0646 -1.28892,-0.0646 -1.10871,0 -1.29199,-0.07148 -1.29199,-0.503901 0,-0.431469 0.21129,-0.51504 1.46997,-0.581395 l 1.46997,-0.07749 0.33383,-1.29199 c 0.49995,-1.934911 0.49845,-1.937984 -0.94819,-1.937984 -0.95641,0 -1.29199,-0.09732 -1.29199,-0.374702 0,-0.274178 0.39312,-0.395492 1.46537,-0.452196 1.60713,-0.08499 1.50592,0.03127 2.14824,-2.467676 0.17023,-0.662267 0.43218,-1.098191 0.65991,-1.098191 0.47601,0 0.47464,0.373305 -0.007,1.961517 -0.21164,0.697651 -0.38606,1.361743 -0.3876,1.475759 -0.002,0.114016 0.6023,0.172156 1.34185,0.129199 l 1.34464,-0.0781 0.41239,-1.678521 c 0.28545,-1.16185 0.54762,-1.704565 0.85174,-1.763133 0.53161,-0.102378 0.53364,-0.03324 0.0518,1.762068 -0.20981,0.781653 -0.38285,1.508397 -0.38453,1.614987 -0.002,0.106589 0.57832,0.193798 1.28892,0.193798 0.95641,0 1.29199,0.09732 1.29199,0.374702 0,0.274344 -0.39371,0.395457 -1.46997,0.452196 l -1.46997,0.07749 -0.33383,1.291989 c -0.49996,1.934912 -0.49845,1.937985 0.94819,1.937985 1.11972,0 1.29199,0.06891 1.29199,0.516796 0,0.458324 -0.17227,0.516796 -1.52256,0.516796 h -1.52255 l -0.44327,1.808785 c -0.34355,1.401897 -0.54746,1.808786 -0.90646,1.808786 -0.44513,0 -0.44505,-0.07054 0.002,-1.808786 l 0.46526,-1.808785 h -1.36312 c -1.32639,0 -1.36757,0.02225 -1.52826,0.825715 -0.38976,1.948799 -0.71354,2.791856 -1.07221,2.791856 -0.2077,0 -0.37626,-0.145349 -0.37457,-0.322998 z m 4.88222,-5.297157 c 0.68598,-2.61656 0.75271,-2.390181 -0.70457,-2.390181 h -1.30167 l -0.40593,1.396358 c -0.56975,1.959866 -0.56843,1.962815 0.8761,1.962815 1.26402,0 1.28559,-0.01361 1.53607,-0.968992 z"
       id="path43"
       inkscape:connector-curvature="0"
       transform="matrix(1.876793,0,0,1.876793,-88.5905,0)" />
    <path
       style="fill:#ffffff;stroke-width:0.25839794"
       d="m 82.668977,255.53486 c 2.367825,-0.11333 1.451633,-0.16374 -3.875969,-0.21325 -7.758196,-0.0721 -8.577341,-0.11932 -12.015504,-0.69263 -0.497416,-0.0829 -1.16602,-0.15359 -1.485788,-0.15699 -0.319767,-0.003 -0.581395,-0.12372 -0.581395,-0.26738 0,-0.14366 -0.232442,-0.20042 -0.516539,-0.12612 -0.284096,0.0743 -0.586555,0.0218 -0.672132,-0.11668 -0.08558,-0.13847 -0.314526,-0.19077 -0.508778,-0.11623 -0.194251,0.0745 -0.426809,0.0164 -0.516795,-0.1292 -0.08999,-0.1456 -0.326268,-0.20231 -0.525072,-0.12602 -0.198802,0.0763 -0.361459,0.0136 -0.361459,-0.13923 0,-0.15286 -0.174419,-0.211 -0.387597,-0.1292 -0.213178,0.0818 -0.387597,0.0237 -0.387597,-0.1292 0,-0.15286 -0.174419,-0.211 -0.387597,-0.1292 -0.213178,0.0818 -0.387597,0.0237 -0.387597,-0.12919 0,-0.15287 -0.166906,-0.21389 -0.370902,-0.13561 -0.203997,0.0783 -0.407485,0.0432 -0.452197,-0.0779 -0.04471,-0.12112 -0.313852,-0.25994 -0.598089,-0.30849 -0.284238,-0.0485 -0.574936,-0.15985 -0.645995,-0.24735 -0.241928,-0.29789 -2.325582,-1.2734 -2.325582,-1.08877 0,0.10111 -0.145349,-0.006 -0.322997,-0.23894 -0.177649,-0.23254 -0.497416,-0.45825 -0.710594,-0.50159 -0.213179,-0.0433 -0.53954,-0.28229 -0.725247,-0.53099 -0.185707,-0.24871 -0.435707,-0.4522 -0.555555,-0.4522 -0.279117,0 -2.187544,-1.86821 -2.198957,-2.15261 -0.0047,-0.11805 -0.194571,-0.35061 -0.421852,-0.5168 -0.227282,-0.16619 -0.429818,-0.41845 -0.450082,-0.56056 -0.02026,-0.14212 -0.20266,-0.45206 -0.405327,-0.68876 -0.202666,-0.2367 -0.300517,-0.49832 -0.217446,-0.58139 0.08307,-0.0831 0.0085,-0.15104 -0.165677,-0.15104 -0.174192,0 -0.244849,-0.11628 -0.157015,-0.2584 0.08783,-0.14212 0.0613,-0.2584 -0.05896,-0.2584 -0.120263,0 -0.238238,-0.25991 -0.262166,-0.57757 -0.02393,-0.31766 -0.158421,-0.61587 -0.298871,-0.66269 -0.140449,-0.0468 -0.191315,-0.25202 -0.113034,-0.45602 0.07828,-0.204 0.03853,-0.3709 -0.08834,-0.3709 -0.12687,0 -0.247875,-0.20349 -0.2689,-0.4522 -0.02103,-0.24871 -0.110293,-0.85917 -0.198373,-1.35659 -0.08808,-0.49741 -0.146566,-1.58441 -0.129971,-2.41555 0.01659,-0.83113 -0.0644,-1.45262 -0.179997,-1.38107 -0.115593,0.0715 -0.210169,-1.31228 -0.210169,-3.07517 0,-1.76288 0.100765,-3.20535 0.223922,-3.20548 0.123157,-1.4e-4 0.164491,-0.31114 0.09185,-0.69112 -0.07264,-0.37998 0.05153,-1.28114 0.275919,-2.00258 0.224393,-0.72144 0.417398,-1.36986 0.428899,-1.44091 0.0115,-0.0711 0.113203,-0.27455 0.226003,-0.4522 0.112801,-0.17765 0.11102,-0.32478 -0.004,-0.32696 -0.114976,-0.002 -0.06663,-0.0944 0.107424,-0.20501 0.17406,-0.11058 0.351842,-0.42857 0.395073,-0.70664 0.04323,-0.27807 0.169308,-0.65093 0.280173,-0.82857 0.110865,-0.17765 0.107501,-0.32478 -0.0075,-0.32696 -0.114976,-0.002 -0.06664,-0.0944 0.107424,-0.20501 0.174059,-0.11059 0.354164,-0.42857 0.400232,-0.70664 0.04607,-0.27807 0.227514,-0.76721 0.403213,-1.08698 0.1757,-0.31976 0.228154,-0.58317 0.116565,-0.58535 -0.11159,-0.002 -0.05172,-0.0999 0.133052,-0.21705 0.184768,-0.1172 0.354861,-0.46425 0.377985,-0.77123 0.02312,-0.30698 0.140441,-0.55815 0.260703,-0.55815 0.120263,0 0.152934,-0.10635 0.0726,-0.23633 -0.08033,-0.12998 -0.02389,-0.27705 0.125431,-0.32682 0.149319,-0.0498 0.291067,-0.3504 0.314996,-0.66807 0.02393,-0.31766 0.141903,-0.57756 0.262166,-0.57756 0.120263,0 0.146796,-0.11628 0.05896,-0.2584 -0.08783,-0.14212 -0.03656,-0.2584 0.113949,-0.2584 0.150507,0 0.249741,-0.0872 0.220521,-0.1938 -0.02922,-0.10659 0.140561,-0.55696 0.377291,-1.00083 0.23673,-0.44387 0.357537,-0.87991 0.268459,-0.96899 -0.08908,-0.0891 -0.01944,-0.16196 0.154754,-0.16196 0.174193,0 0.24485,-0.11628 0.157016,-0.2584 -0.08783,-0.14212 -0.02969,-0.2584 0.129199,-0.2584 0.158894,0 0.217033,-0.11628 0.129199,-0.2584 -0.08783,-0.14211 -0.04916,-0.25839 0.08594,-0.25839 0.135099,0 0.318595,-0.2907 0.407769,-0.646 l 0.162135,-0.64599 h 5.163035 c 2.83967,0 5.163036,0.0439 5.163036,0.0976 0,0.0537 -0.930233,2.09561 -2.067183,4.5376 -1.136951,2.44199 -2.067184,4.48025 -2.067184,4.52946 0,0.0492 -0.366927,0.8852 -0.815395,1.85775 -0.448466,0.97255 -0.846849,1.88455 -0.885295,2.02667 -0.03845,0.14212 -0.487728,1.47933 -0.998403,2.97158 -1.146677,3.35071 -1.296043,4.59774 -0.943983,7.88114 0.374794,3.49542 0.666287,4.38769 1.854558,5.67681 1.724942,1.87134 5.158327,3.08148 11.218185,3.95398 2.863064,0.41223 7.342467,0.44673 58.012184,0.44673 50.66973,0 55.14913,-0.0345 58.0122,-0.44673 6.23549,-0.89779 9.72432,-2.18841 11.42921,-4.22801 0.53462,-0.63957 0.98657,-1.27382 1.00434,-1.40944 0.0178,-0.13561 0.0557,-0.27564 0.0844,-0.31117 0.4059,-0.50357 0.81911,-7.03842 0.52908,-8.36729 -0.63193,-2.89535 -3.10106,-9.14071 -6.30764,-15.95442 -0.79423,-1.68766 -1.44405,-3.11208 -1.44405,-3.16537 0,-0.1639 9.75041,-0.10705 10.1841,0.0594 0.22399,0.0859 0.34291,0.26037 0.26429,0.3876 -0.0786,0.12723 -4.4e-4,0.23132 0.17375,0.23132 0.17419,0 0.24418,0.0725 0.15552,0.1612 -0.0887,0.0887 0.0899,0.64098 0.39676,1.22739 0.30688,0.5864 0.53446,1.1534 0.50573,1.25999 -0.0287,0.10659 0.0709,0.1938 0.22141,0.1938 0.15051,0 0.20178,0.11628 0.11394,0.2584 -0.0878,0.14212 -0.0366,0.25839 0.11395,0.25839 0.15051,0 0.25457,0.0872 0.23126,0.1938 -0.0873,0.39917 0.36624,1.61499 0.60245,1.61499 0.1351,0 0.17377,0.11628 0.0859,0.2584 -0.0878,0.14212 -0.0613,0.2584 0.059,0.2584 0.12027,0 0.23824,0.2599 0.26217,0.57756 0.0239,0.31767 0.16568,0.6183 0.315,0.66807 0.14932,0.0498 0.20576,0.19684 0.12543,0.32682 -0.0803,0.12998 -0.0161,0.23633 0.14284,0.23633 0.15889,0 0.222,0.10825 0.14023,0.24054 -0.0818,0.1323 -0.0286,0.31476 0.11816,0.40546 0.14676,0.0907 0.19993,0.27315 0.11817,0.40545 -0.0818,0.1323 -0.0255,0.24054 0.12498,0.24054 0.15051,0 0.25988,0.0872 0.24305,0.1938 -0.0168,0.10659 -0.008,0.25194 0.0192,0.323 0.0274,0.0711 0.10223,0.41485 0.16632,0.76397 0.0641,0.34913 0.25894,0.72526 0.433,0.83584 0.17406,0.11058 0.21502,0.20284 0.091,0.20502 -0.12398,0.002 -0.0807,0.17837 0.0962,0.39155 0.17693,0.21318 0.23507,0.3876 0.1292,0.3876 -0.10587,0 -0.0477,0.17441 0.1292,0.38759 0.17691,0.21318 0.23506,0.3876 0.12919,0.3876 -0.10586,0 -0.0477,0.17442 0.1292,0.3876 0.17692,0.21317 0.23507,0.38759 0.1292,0.38759 -0.10586,0 -0.063,0.15605 0.0953,0.34678 0.15827,0.19072 0.21902,0.41554 0.13496,0.4996 -0.0841,0.0841 -0.0595,0.30387 0.0546,0.48848 0.3407,0.55126 0.37417,1.15311 0.35704,6.41708 -0.0172,5.26653 -0.0724,6.30113 -0.37542,7.02897 -0.10071,0.2419 -0.1078,0.56167 -0.0158,0.71059 0.092,0.14893 0.0318,0.27078 -0.13395,0.27078 -0.16571,0 -0.23725,0.1669 -0.15897,0.3709 0.0783,0.204 0.0274,0.40921 -0.11304,0.45602 -0.14044,0.0468 -0.27493,0.34503 -0.29887,0.66269 -0.0239,0.31766 -0.14189,0.57757 -0.26216,0.57757 -0.12027,0 -0.1468,0.11628 -0.059,0.2584 0.0878,0.14212 0.0172,0.2584 -0.15702,0.2584 -0.1742,0 -0.24888,0.0678 -0.16598,0.15073 0.0829,0.0829 -0.0764,0.37784 -0.35396,0.65542 -0.27758,0.27758 -0.43545,0.61673 -0.3508,0.75366 0.0846,0.13693 0.045,0.24897 -0.0881,0.24897 -0.13311,0 -0.77294,0.64493 -1.42188,1.43318 -0.64893,0.78825 -1.27364,1.44538 -1.38824,1.46027 -0.38664,0.0503 -2.14635,1.30766 -2.14635,1.53366 0,0.12323 -0.0872,0.19641 -0.1938,0.16262 -0.32681,-0.10361 -1.87338,0.62554 -1.87338,0.88323 0,0.13326 -0.11628,0.17043 -0.2584,0.0826 -0.14212,-0.0878 -0.2584,-0.0613 -0.2584,0.059 0,0.12026 -0.25991,0.23824 -0.57757,0.26216 -0.31766,0.0239 -0.61587,0.15843 -0.66269,0.29888 -0.0468,0.14044 -0.25202,0.19131 -0.45602,0.11303 -0.20399,-0.0783 -0.3709,-0.0173 -0.3709,0.13561 0,0.15286 -0.17442,0.211 -0.3876,0.12919 -0.21318,-0.0818 -0.3876,-0.0237 -0.3876,0.1292 0,0.15287 -0.16265,0.21552 -0.36145,0.13923 -0.19881,-0.0763 -0.43508,-0.0196 -0.52507,0.12602 -0.09,0.14561 -0.32255,0.20375 -0.51679,0.1292 -0.19425,-0.0745 -0.43112,-0.009 -0.52638,0.1447 -0.0952,0.15413 -0.28143,0.21333 -0.41373,0.13157 -0.1323,-0.0818 -0.38385,-0.0601 -0.559,0.0481 -0.17515,0.10825 -0.49492,0.22408 -0.71059,0.2574 -0.21568,0.0333 -0.74098,0.12649 -1.16734,0.20703 -1.67334,0.31609 -3.62986,0.59817 -5.42635,0.78234 -0.56848,0.0583 -3.59174,0.13127 -6.71835,0.1622 -3.78375,0.0374 -4.99348,0.10749 -3.61757,0.20947 1.13695,0.0843 -19.79328,0.15323 -46.51163,0.15323 -26.71835,0 -47.183467,-0.0668 -45.47804,-0.14841 z"
       id="path45"
       inkscape:connector-curvature="0"
       transform="matrix(1.876793,0,0,1.876793,-88.5905,0)" />
    <path
       style="fill:#ffffff;stroke-width:0.25839794"
       d="m 70.653473,240.68711 c -4.750622,-0.70759 -6.2308,-1.23159 -7.622739,-2.69855 l -0.775193,-0.81697 0.02119,-3.27646 c 0.02396,-3.70534 0.246227,-4.55078 2.729572,-10.3824 3.675545,-8.63127 19.60253,-39.31404 25.820151,-49.74161 2.264297,-3.79745 3.115155,-4.73037 5.170974,-5.66972 3.037517,-1.38791 4.215912,-1.21606 10.359182,1.51065 4.885,2.16824 6.27551,2.56034 8.99971,2.53782 2.78354,-0.023 5.57019,-0.59955 14.67671,-3.03655 4.02181,-1.07627 8.24719,-2.06347 9.38973,-2.19378 2.40893,-0.27475 6.24367,0.0243 9.86368,0.76911 5.14538,1.0587 13.67266,3.39774 14.3074,3.92452 0.71918,0.59687 1.81905,2.40665 4.92331,8.10111 10.91699,20.02608 20.16191,38.44641 23.92714,47.67442 1.31752,3.22905 1.3179,3.23081 1.32685,6.20155 0.005,1.63436 -0.0817,3.29606 -0.1924,3.69265 -0.26693,0.9559 -2.0554,2.07151 -4.26534,2.66063 -0.95417,0.25436 -1.793,0.52777 -1.86406,0.60757 -0.23674,0.26585 -2.16229,0.27873 -58.39793,0.39047 -47.320835,0.094 -56.321499,0.0548 -58.397933,-0.25446 z"
       id="path47"
       inkscape:connector-curvature="0"
       transform="matrix(1.876793,0,0,1.876793,-88.5905,0)" />
    <path
       style="fill:#ffffff;stroke-width:0.25839794"
       d="m 110.18836,158.77005 c 0,-0.12278 1.05304,-4.00308 1.45129,-5.34776 0.12061,-0.40727 -0.0989,-0.4522 -2.20907,-0.4522 h -2.343 v -0.89535 -0.89536 l 2.62569,-0.0736 2.62569,-0.0736 0.71137,-2.64858 0.71137,-2.64858 h -2.43267 -2.43266 v -0.90439 -0.9044 h 2.69576 c 2.34634,0 2.71237,-0.0586 2.82384,-0.45219 0.0704,-0.24871 0.44299,-1.58592 0.82788,-2.97158 l 0.6998,-2.51938 h 0.86913 c 0.47801,0 0.86912,0.038 0.86912,0.0844 0,0.0464 -0.34884,1.3267 -0.7752,2.84509 -0.42635,1.51839 -0.77519,2.82216 -0.77519,2.89725 0,0.0751 1.01349,0.10295 2.25219,0.0619 l 2.2522,-0.0747 0.78625,-2.84237 0.78626,-2.84238 0.87363,-0.0837 c 1.01306,-0.097 1.01583,-0.24448 -0.0685,3.63664 l -0.63166,2.26098 h 2.43035 2.43034 v 0.9044 0.90439 h -2.67917 -2.67918 l -0.68,2.45119 c -0.374,1.34815 -0.68,2.56908 -0.68,2.71317 0,0.15765 0.9262,0.262 2.32559,0.262 h 2.32558 v 0.90439 0.90439 h -2.67383 -2.67382 l -0.76809,2.90698 -0.76808,2.90697 -0.93038,0.079 -0.93037,0.079 0.63561,-2.27536 c 0.34959,-1.25145 0.70375,-2.59513 0.78701,-2.98596 l 0.1514,-0.71059 h -2.21034 -2.21035 l -0.39062,1.35659 c -0.21483,0.74612 -0.59099,2.08333 -0.83589,2.97158 -0.43269,1.56933 -0.46964,1.61498 -1.3073,1.61498 -0.47412,0 -0.86203,-0.0644 -0.86203,-0.14319 z m 9.13632,-10.14962 c 0.37554,-1.39748 0.6828,-2.62294 0.6828,-2.72324 0,-0.1003 -1.01323,-0.14877 -2.25163,-0.1077 l -2.25163,0.0747 -0.5505,1.93798 c -0.30278,1.06589 -0.62897,2.25775 -0.72487,2.64858 l -0.17437,0.7106 h 2.2937 2.29371 z"
       id="path49"
       inkscape:connector-curvature="0"
       transform="matrix(1.876793,0,0,1.876793,-88.5905,0)" />
    <path
       style="fill:#ffffff;stroke-width:0.25839794"
       d="m 135.11264,136.75562 c 0.0966,-0.53295 0.23841,-1.23062 0.31517,-1.55039 0.12753,-0.53123 0.048,-0.58139 -0.92203,-0.58139 -0.77139,0 -1.06161,-0.10596 -1.06161,-0.3876 0,-0.28603 0.29909,-0.3876 1.14138,-0.3876 h 1.14138 l 0.27981,-1.3047 c 0.42962,-2.00326 0.41083,-2.05447 -0.75378,-2.05447 -0.72907,0 -1.0336,-0.11003 -1.0336,-0.37344 0,-0.26211 0.36546,-0.39692 1.22585,-0.4522 l 1.22584,-0.0787 0.34695,-1.61499 c 0.21322,-0.9925 0.47872,-1.61499 0.68883,-1.61499 0.28206,0 0.27975,0.26003 -0.0132,1.48579 -0.19529,0.81719 -0.35922,1.573 -0.36428,1.67959 -0.005,0.10659 0.45142,0.1938 1.01442,0.1938 1.10397,0 1.05431,0.0788 1.66856,-2.64858 0.088,-0.39083 0.28704,-0.7106 0.44227,-0.7106 0.26944,0 0.2444,0.30585 -0.21679,2.64858 -0.13445,0.68296 -0.0984,0.7106 0.926,0.7106 0.77519,0 1.06589,0.1057 1.06589,0.38759 0,0.28687 -0.30092,0.3876 -1.15787,0.3876 -1.05227,0 -1.17238,0.0648 -1.31706,0.71059 -0.0876,0.39083 -0.25266,1.08066 -0.36688,1.53297 -0.25685,1.01705 -0.16178,1.11561 1.07609,1.11561 0.7082,0 0.99053,0.11048 0.99053,0.3876 0,0.29147 -0.31209,0.3876 -1.25837,0.3876 h -1.25837 l -0.30502,1.55038 c -0.19166,0.97416 -0.43404,1.55039 -0.65215,1.55039 -0.33448,0 -0.2318,-0.99124 0.27601,-2.66453 0.1241,-0.40892 0.002,-0.45796 -0.96355,-0.3876 -1.18569,0.0864 -1.08809,-0.0538 -1.63061,2.34154 -0.25337,1.11867 -0.75651,0.88221 -0.54981,-0.2584 z m 3.47352,-3.48837 c 0.1208,-0.31977 0.30257,-1.07558 0.40392,-1.67959 l 0.18427,-1.09819 h -1.02563 c -0.99796,0 -1.03342,0.031 -1.3147,1.14802 -0.49101,1.94998 -0.41758,2.21115 0.62171,2.21115 0.70718,0 0.95989,-0.12997 1.13043,-0.58139 z"
       id="path51"
       inkscape:connector-curvature="0"
       transform="matrix(1.876793,0,0,1.876793,-88.5905,0)" />
    <path
       style="fill:#ffffff;stroke-width:0.25839794"
       d=""
       id="path53"
       inkscape:connector-curvature="0"
       transform="matrix(1.876793,0,0,1.876793,-88.5905,0)" />
    <path
       style="fill:#ffffff;stroke-width:0.25839794"
       d="m 118.99035,120.93202 c 0.27518,-0.99304 0.50033,-1.86513 0.50033,-1.93799 0,-0.0729 -0.63953,-0.13247 -1.42119,-0.13247 -1.09101,0 -1.42118,-0.09 -1.42118,-0.38759 0,-0.30119 0.34341,-0.3876 1.54037,-0.3876 h 1.54038 l 0.39761,-1.33889 c 0.65132,-2.19325 0.61295,-2.27868 -1.02358,-2.27868 -1.09102,0 -1.42119,-0.0901 -1.42119,-0.3876 0,-0.30411 0.35579,-0.3876 1.65175,-0.3876 h 1.65175 l 0.44835,-1.82952 c 0.39557,-1.61416 0.9064,-2.38389 1.31253,-1.97775 0.0729,0.0729 -0.0484,0.83079 -0.26954,1.68421 -0.57042,2.20134 -0.58858,2.16099 0.93248,2.07197 l 1.33456,-0.0781 0.50175,-1.87339 c 0.41087,-1.53406 0.59538,-1.87338 1.01867,-1.87338 0.34332,0 0.46905,0.12473 0.37438,0.37143 -0.0784,0.20429 -0.27217,0.87289 -0.43062,1.48579 -0.15845,0.61289 -0.34714,1.31784 -0.41932,1.56655 -0.11383,0.39223 0.0595,0.45219 1.30737,0.45219 1.10649,0 1.4386,0.0895 1.4386,0.3876 0,0.30119 -0.34342,0.3876 -1.54043,0.3876 h -1.54043 l -0.26471,0.98307 c -0.14559,0.54069 -0.33903,1.35464 -0.42985,1.80878 l -0.16515,0.82572 h 1.45349 c 1.0985,0 1.45349,0.0917 1.45349,0.37527 0,0.27985 -0.41061,0.39482 -1.61499,0.45219 l -1.61499,0.0769 -0.51679,1.8728 c -0.39015,1.41386 -0.62761,1.87294 -0.96899,1.87338 -0.54965,7.3e-4 -0.55363,-0.0997 -0.0674,-1.70253 0.62467,-2.05916 0.57854,-2.17285 -0.88156,-2.17285 -1.4023,0 -1.34867,-0.0715 -2.08264,2.77778 -0.20784,0.80682 -0.413,1.09819 -0.77327,1.09819 -0.48062,0 -0.48042,-0.0359 0.01,-1.80551 z m 4.99088,-4.51374 c 0.23046,-0.91745 0.41901,-1.73141 0.41901,-1.80879 0,-0.0774 -0.61521,-0.14069 -1.36715,-0.14069 h -1.36715 l -0.44163,1.6574 c -0.2429,0.91157 -0.44164,1.72552 -0.44164,1.80878 0,0.0833 0.6254,0.15139 1.38978,0.15139 h 1.38977 z"
       id="path55"
       inkscape:connector-curvature="0"
       transform="matrix(1.876793,0,0,1.876793,-88.5905,0)" />
    <path
       style="fill:#ffffff;stroke-width:0.25839794"
       d="m 129.41089,102.0011 c 0.51898,-1.86998 0.56152,-1.74419 -0.58987,-1.74419 -0.58388,0 -1.0616,-0.11628 -1.0616,-0.258396 0,-0.142119 0.51188,-0.258398 1.13751,-0.258398 1.04356,0 1.16094,-0.06721 1.42119,-0.813752 0.46896,-1.345264 0.3835,-1.508139 -0.81452,-1.552424 l -1.09819,-0.0406 1.28509,-0.153204 c 1.23383,-0.147092 1.29642,-0.193823 1.56945,-1.171615 0.15639,-0.560127 0.43754,-1.069473 0.62476,-1.13188 0.2572,-0.08573 0.29247,0.06845 0.14428,0.630815 -0.36828,1.397573 -0.31845,1.51497 0.67838,1.598112 0.90142,0.07519 0.9588,0.03056 1.30813,-1.017442 0.20095,-0.602842 0.52197,-1.14828 0.71339,-1.212084 0.24861,-0.08287 0.29419,0.02323 0.15955,0.371447 -0.10366,0.2681 -0.25154,0.799897 -0.32862,1.181772 -0.13287,0.658276 -0.0816,0.699526 0.98709,0.79465 l 1.12724,0.100331 -1.20311,0.04514 c -1.18286,0.04439 -1.20976,0.06471 -1.5993,1.207935 l -0.3962,1.16279 h 1.14711 c 1.53716,0 1.47097,0.467703 -0.0803,0.567233 -1.19591,0.0767 -1.2363,0.10693 -1.57491,1.17695 -0.19113,0.60401 -0.50574,1.09819 -0.69913,1.09819 -0.29376,0 -0.29097,-0.17188 0.017,-1.0446 0.41694,-1.18174 0.2394,-1.38864 -1.06032,-1.23565 -0.58124,0.0684 -0.77964,0.28619 -1.07696,1.18206 -0.37198,1.12086 -1.03346,1.58464 -0.7371,0.5168 z m 3.7613,-3.229976 c 0.37546,-1.351968 0.37341,-1.356589 -0.60077,-1.356589 -0.99944,0 -1.31972,0.302575 -1.57272,1.485788 -0.17925,0.838307 -0.17773,0.839793 0.86241,0.839793 0.98395,0 1.05696,-0.05396 1.31108,-0.968992 z"
       id="path57"
       inkscape:connector-curvature="0"
       transform="matrix(1.876793,0,0,1.876793,-88.5905,0)" />
    <path
       style="fill:#ffffff;stroke-width:0.25839794"
       d="m 129.45128,59.326275 c 0.1699,-0.905645 0.15353,-0.929828 -0.62951,-0.929828 -0.44218,0 -0.80396,-0.116279 -0.80396,-0.258398 0,-0.142119 0.40986,-0.258398 0.91079,-0.258398 0.73991,0 0.95807,-0.124354 1.16279,-0.662816 0.37817,-0.994658 0.32532,-1.104128 -0.58779,-1.217443 -0.83527,-0.103656 -0.83462,-0.10444 0.11924,-0.145571 0.8888,-0.03833 0.97942,-0.117046 1.23735,-1.074945 0.15308,-0.568475 0.382,-1.033592 0.50872,-1.033592 0.13289,0 0.12867,0.354703 -0.01,0.838088 -0.34871,1.215873 -0.32224,1.269941 0.57803,1.180868 0.65693,-0.065 0.87358,-0.242986 1.09819,-0.902219 0.37542,-1.10189 0.79127,-1.458454 0.55462,-0.475559 -0.10201,0.423707 -0.20558,0.885102 -0.23015,1.025324 -0.0246,0.140221 0.36231,0.33057 0.85972,0.422998 l 0.9044,0.16805 -1.09819,0.03402 c -0.686,0.02125 -1.09952,0.155248 -1.10172,0.357013 -0.002,0.177649 -0.0736,0.584625 -0.15934,0.904393 -0.13718,0.511893 -0.0595,0.581395 0.64952,0.581395 1.13485,0 1.00602,0.468848 -0.15546,0.565797 -0.83555,0.06974 -0.992,0.189665 -1.20017,0.919991 -0.13166,0.461887 -0.34667,0.839794 -0.47781,0.839794 -0.21147,0 -0.13225,-0.476377 0.2471,-1.485788 0.0828,-0.220296 -0.16844,-0.322998 -0.79012,-0.322998 -0.80191,0 -0.9319,0.09285 -1.08112,0.772231 -0.2513,1.144159 -0.71754,1.289611 -0.50517,0.157597 z m 2.7009,-1.512929 c 0,-0.03647 0.10816,-0.443445 0.24036,-0.904393 0.23678,-0.825604 0.22754,-0.838087 -0.62072,-0.838087 -0.7335,0 -0.9031,0.120563 -1.14475,0.813752 -0.15602,0.447565 -0.28367,0.854541 -0.28367,0.904393 0,0.04985 0.40697,0.09064 0.90439,0.09064 0.49741,0 0.90439,-0.02984 0.90439,-0.0663 z"
       id="path59"
       inkscape:connector-curvature="0"
       transform="matrix(1.876793,0,0,1.876793,-88.5905,0)" />
    <path
       style="fill:#ffffff;stroke-width:2.22151256"
       d="m 228.86179,249.45088 c 0,-0.96542 2.60901,-8.79405 5.79771,-17.39698 3.18879,-8.60292 5.79779,-16.91036 5.79779,-18.46098 0,-2.13157 -5.09156,-2.81932 -20.87189,-2.81932 -20.71735,0 -20.87189,-0.0395 -20.87189,-5.32008 v -5.32008 h 23.87248 23.87256 l 6.27581,-17.68297 c 3.45166,-9.72563 6.27571,-18.82296 6.27571,-20.21629 0,-1.77142 -6.27724,-2.53332 -20.87189,-2.53332 -20.71726,0 -20.8719,-0.0395 -20.8719,-5.32008 v -5.32007 h 23.86216 23.86225 l 7.00133,-19.68428 c 6.75874,-19.00191 7.25802,-19.70741 14.40304,-20.35113 4.07085,-0.36675 7.40153,0.18373 7.40153,1.2233 0,1.03957 -2.60901,8.92888 -5.79771,17.5318 -3.18879,8.60292 -5.7978,16.91037 -5.7978,18.461 0,2.11711 4.86217,2.81931 19.52117,2.81931 h 19.52108 l 7.33978,-20.21629 7.33978,-20.21629 h 7.92566 c 4.35903,0 7.92557,0.29917 7.92557,0.66482 0,0.36566 -3.13081,9.16381 -6.95727,19.55147 -3.82654,10.38765 -6.95735,19.18581 -6.95735,19.55147 0,0.36565 9.39234,0.66485 20.87189,0.66485 20.71735,0 20.87198,0.0395 20.87198,5.32007 0,5.31714 -0.009,5.32007 -23.00056,5.32007 h -23.00057 l -6.3283,17.55626 c -3.48057,9.65594 -6.80874,18.75327 -7.39587,20.21629 -0.80685,2.01142 4.36504,2.66004 21.21195,2.66004 22.21885,0 22.27961,0.0148 22.27961,5.32008 v 5.32008 h -24.15932 -24.15932 l -7.33977,20.21628 -7.33978,20.21629 h -7.92567 c -4.35902,0 -7.92557,-0.29919 -7.92557,-0.66485 0,-0.36565 3.13081,-9.16381 6.95727,-19.55147 3.82655,-10.38766 6.95736,-19.18581 6.95736,-19.55147 0,-0.36566 -9.1669,-0.66485 -20.37092,-0.66485 H 257.693 l -6.61882,20.21629 -6.61883,20.21629 h -7.79678 c -4.28822,0 -7.79678,-0.78987 -7.79678,-1.75531 z m 81.59279,-69.53372 c 3.55389,-10.53376 6.47774,-19.39169 6.49739,-19.68429 0.0179,-0.2926 -9.14158,-0.53201 -20.35826,-0.53201 h -20.39389 l -6.2758,17.68297 c -3.45166,9.72563 -6.27571,18.86024 -6.27571,20.29914 0,1.91616 5.39751,2.45165 20.17221,2.00132 l 20.1723,-0.61486 z"
       id="path61"
       inkscape:connector-curvature="0" />
    <path
       style="fill:#ffffff;stroke-width:0.25839794"
       d="m 125.29762,14.145801 c 0.0726,-0.319767 0.23689,-1.075581 0.36506,-1.679586 l 0.23302,-1.098192 h -1.00613 c -0.83386,0 -1.00612,-0.08848 -1.00612,-0.516796 0,-0.438251 0.17226,-0.516795 1.13345,-0.516795 h 1.13345 l 0.17933,-1.195827 c 0.0986,-0.6577046 0.24055,-1.3553791 0.31538,-1.5503876 0.10169,-0.2650142 -0.13197,-0.354561 -0.92518,-0.354561 -0.88897,0 -1.06124,-0.083889 -1.06124,-0.5167958 0,-0.4382574 0.17227,-0.5167959 1.13353,-0.5167959 h 1.13354 l 0.31691,-1.6795866 c 0.19392,-1.0277218 0.44533,-1.6795865 0.64779,-1.6795865 0.32474,0 0.29617,0.296968 -0.26721,2.7777778 -0.1195,0.5262286 -0.0363,0.5813953 0.87723,0.5813953 h 1.00925 l 0.31692,-1.6795866 c 0.19392,-1.0277218 0.44533,-1.6795865 0.64779,-1.6795865 0.32474,0 0.29617,0.296968 -0.26721,2.7777778 -0.11999,0.5283896 -0.0374,0.5813953 0.90649,0.5813953 0.86625,0 1.03851,0.085724 1.03851,0.5167959 0,0.438292 -0.17226,0.5167958 -1.13403,0.5167958 -1.10696,0 -1.13823,0.023137 -1.30963,0.9689923 -0.0966,0.5329457 -0.23841,1.2306201 -0.31517,1.5503876 -0.12753,0.5312337 -0.048,0.5813957 0.92203,0.5813957 0.88934,0 1.06161,0.08386 1.06161,0.516795 0,0.438798 -0.17227,0.516796 -1.14138,0.516796 h -1.14138 l -0.27981,1.304709 c -0.1539,0.717589 -0.27981,1.473403 -0.27981,1.679586 0,0.206183 -0.17663,0.374878 -0.39252,0.374878 -0.27391,0 -0.35262,-0.175679 -0.26049,-0.581395 0.0726,-0.319767 0.23689,-1.075581 0.36506,-1.679586 l 0.23302,-1.098192 h -0.98472 c -0.97372,0 -0.98783,0.01456 -1.26452,1.304709 -0.15389,0.717589 -0.27981,1.473403 -0.27981,1.679586 0,0.206183 -0.17663,0.374878 -0.39252,0.374878 -0.27391,0 -0.35262,-0.175679 -0.26049,-0.581395 z m 3.61347,-4.7803616 c 0.0966,-0.5329458 0.23841,-1.2306202 0.31517,-1.5503876 0.12719,-0.5298199 0.0472,-0.5813954 -0.9015,-0.5813954 -1.12924,0 -1.00304,-0.1969348 -1.49027,2.3255814 -0.14607,0.7562462 -0.12466,0.7751942 0.87564,0.7751942 0.98138,0 1.0329,-0.04156 1.20096,-0.9689926 z"
       id="path63"
       inkscape:connector-curvature="0"
       transform="matrix(1.876793,0,0,1.876793,-88.5905,0)" />
    <path
       style="fill:#ffffff;stroke-width:0.25839794"
       d=""
       id="path65"
       inkscape:connector-curvature="0"
       transform="matrix(1.876793,0,0,1.876793,-88.5905,0)" />
    <path
       style="fill:#ffffff;stroke-width:0.25839794"
       d="m 112.27688,30.683269 c 0.26763,-1.030362 0.48859,-2.018734 0.49103,-2.196383 0.003,-0.223001 -0.47555,-0.322997 -1.54596,-0.322997 -1.37812,0 -1.55039,-0.05742 -1.55039,-0.516796 0,-0.466645 0.17227,-0.516796 1.77517,-0.516796 h 1.77516 l 0.29577,-1.485788 c 0.16267,-0.817183 0.36578,-1.747416 0.45135,-2.067183 0.14893,-0.556519 0.088,-0.581396 -1.42493,-0.581396 -1.51363,0 -1.58053,-0.02734 -1.58053,-0.645994 0,-0.626872 0.053,-0.645995 1.78939,-0.645995 h 1.78939 l 0.47869,-2.131783 c 0.41084,-1.829613 0.5601,-2.143487 1.05299,-2.214355 0.31586,-0.04541 0.5723,-0.04541 0.56987,0 -0.002,0.04541 -0.233,0.954665 -0.51237,2.020556 -0.27937,1.065892 -0.50993,2.025194 -0.51237,2.131783 -0.002,0.106589 0.67944,0.193799 1.51529,0.193799 h 1.51971 l 0.30281,-1.227391 c 0.75165,-3.046693 0.8011,-3.165374 1.31889,-3.165374 0.61589,0 0.61617,-0.06334 -0.01,2.325581 -0.27937,1.065892 -0.50994,1.967054 -0.51237,2.002584 -0.002,0.03553 0.69325,0.0646 1.54596,0.0646 1.47378,0 1.55039,0.03133 1.55039,0.634188 0,0.602506 -0.0864,0.638006 -1.72862,0.710595 l -1.72862,0.07641 -0.46186,1.808786 c -0.25403,0.994832 -0.46452,1.895995 -0.46777,2.002584 -0.003,0.106589 0.69178,0.193798 1.54449,0.193798 1.36604,0 1.55039,0.06005 1.55039,0.50499 0,0.443413 -0.21187,0.514306 -1.73755,0.581395 l -1.73755,0.07641 -0.50828,2.131783 c -0.44665,1.873332 -0.57747,2.131783 -1.07906,2.131783 h -0.57079 l 0.48661,-1.873385 c 0.68946,-2.654401 0.72842,-2.557321 -0.99033,-2.467676 l -1.48579,0.0775 -0.5168,2.130254 c -0.4479,1.846253 -0.59087,2.130457 -1.07242,2.131783 l -0.55563,0.0015 z m 5.49028,-5.426357 c 0.24099,-1.030362 0.43667,-1.960594 0.43484,-2.067183 -0.002,-0.106589 -0.67972,-0.193799 -1.50645,-0.193799 h -1.50314 l -0.43815,1.873385 c -0.24099,1.030362 -0.43667,1.960595 -0.43485,2.067184 0.002,0.106589 0.67973,0.193798 1.50646,0.193798 h 1.50314 z"
       id="path67"
       inkscape:connector-curvature="0"
       transform="matrix(1.876793,0,0,1.876793,-88.5905,0)" />
  </g>
</svg>
